<?xml version="1.0" encoding="us-ascii" standalone="no"?>
<svg xmlns="http://www.w3.org/2000/svg" xmlns:xlink="http://www.w3.org/1999/xlink" contentStyleType="text/css"
     height="297px" preserveAspectRatio="none" style="width:499px;height:297px;background:#FFFFFF;" version="1.1"
     viewBox="0 0 499 297" width="499px" zoomAndPan="magnify">
    <defs/>
    <g><!--cluster aula12-->
        <g id="cluster_aula12">
            <path d="M8.5,6.0137 L54.5,6.0137 A3.75,3.75 0 0 1 57,8.5137 L64,30.6348 L489.5,30.6348 A2.5,2.5 0 0 1 492,33.1348 L492,287.5137 A2.5,2.5 0 0 1 489.5,290.0137 L8.5,290.0137 A2.5,2.5 0 0 1 6,287.5137 L6,8.5137 A2.5,2.5 0 0 1 8.5,6.0137 "
                  fill="#DDDDDD" style="stroke:#000000;stroke-width:1.5;"/>
            <line style="stroke:#000000;stroke-width:1.5;" x1="6" x2="64" y1="30.6348" y2="30.6348"/>
            <text fill="#000000" font-family="sans-serif" font-size="14" font-weight="bold" lengthAdjust="spacing"
                  textLength="45" x="10" y="23.1211">aula12
            </text>
        </g><!--class Animal-->
        <g id="elem_Animal">
            <rect codeLine="4" fill="#F1F1F1" height="103.8633" id="Animal" rx="2.5" ry="2.5"
                  style="stroke:#181818;stroke-width:0.5;" width="129" x="184.5" y="43.0137"/>
            <ellipse cx="224.25" cy="59.0137" fill="#ADD1B2" rx="11" ry="11" style="stroke:#181818;stroke-width:1.0;"/>
            <path d="M227.0156,54.8887 Q227.1719,54.6699 227.3594,54.5605 Q227.5469,54.4512 227.7656,54.4512 Q228.1406,54.4512 228.375,54.7168 Q228.6094,54.9668 228.6094,55.5762 L228.6094,57.0293 Q228.6094,57.6387 228.375,57.9043 Q228.1406,58.1699 227.7656,58.1699 Q227.4219,58.1699 227.2188,57.9668 Q227.0156,57.7793 226.9063,57.2637 Q226.8594,56.9043 226.6719,56.7168 Q226.3438,56.3418 225.7344,56.123 Q225.125,55.9043 224.5,55.9043 Q223.7344,55.9043 223.0938,56.2324 Q222.4688,56.5605 221.9688,57.3105 Q221.4844,58.0605 221.4844,59.0918 L221.4844,60.1855 Q221.4844,61.4199 222.375,62.248 Q223.2656,63.0605 224.8594,63.0605 Q225.7969,63.0605 226.4531,62.8105 Q226.8438,62.6543 227.2656,62.2168 Q227.5313,61.9512 227.6719,61.873 Q227.8281,61.7949 228.0313,61.7949 Q228.3594,61.7949 228.6094,62.0605 Q228.875,62.3105 228.875,62.6543 Q228.875,62.998 228.5313,63.4043 Q228.0313,63.9824 227.2344,64.3105 Q226.1563,64.7637 224.8594,64.7637 Q223.3438,64.7637 222.1406,64.1387 Q221.1563,63.6387 220.4688,62.5762 Q219.7813,61.498 219.7813,60.2168 L219.7813,59.0605 Q219.7813,57.7324 220.3906,56.5918 Q221.0156,55.4355 222.1094,54.8262 Q223.2031,54.2012 224.4375,54.2012 Q225.1719,54.2012 225.8125,54.373 Q226.4688,54.5293 227.0156,54.8887 Z "
                  fill="#000000"/>
            <text fill="#000000" font-family="sans-serif" font-size="14" lengthAdjust="spacing" textLength="42"
                  x="243.75" y="64.8105">Animal
            </text>
            <line style="stroke:#181818;stroke-width:0.5;" x1="185.5" x2="312.5" y1="75.0137" y2="75.0137"/>
            <rect fill="none" height="6" style="stroke:#C82930;stroke-width:1.0;" width="6" x="192.5" y="86.8242"/>
            <text fill="#000000" font-family="sans-serif" font-size="14" lengthAdjust="spacing" textLength="76"
                  x="204.5" y="94.1211">String nome
            </text>
            <rect fill="none" height="6" style="stroke:#C82930;stroke-width:1.0;" width="6" x="192.5" y="105.4453"/>
            <text fill="#000000" font-family="sans-serif" font-size="14" lengthAdjust="spacing" textLength="103"
                  x="204.5" y="112.7422">int numeroPatas
            </text>
            <line style="stroke:#181818;stroke-width:0.5;" x1="185.5" x2="312.5" y1="120.2559" y2="120.2559"/>
            <polygon fill="#4177AF" points="195.5,131.0664,191.5,137.0664,199.5,137.0664"
                     style="stroke:#1963A0;stroke-width:1.0;"/>
            <text fill="#000000" font-family="sans-serif" font-size="14" lengthAdjust="spacing" textLength="102"
                  x="204.5" y="139.3633">void emitirSom()
            </text>
        </g><!--class Vaca-->
        <g id="elem_Vaca">
            <rect codeLine="10" fill="#F1F1F1" height="66.6211" id="Vaca" rx="2.5" ry="2.5"
                  style="stroke:#181818;stroke-width:0.5;" width="128" x="22" y="207.0137"/>
            <ellipse cx="65.8" cy="223.0137" fill="#ADD1B2" rx="11" ry="11" style="stroke:#181818;stroke-width:1.0;"/>
            <path d="M68.5656,218.8887 Q68.7219,218.6699 68.9094,218.5605 Q69.0969,218.4512 69.3156,218.4512 Q69.6906,218.4512 69.925,218.7168 Q70.1594,218.9668 70.1594,219.5762 L70.1594,221.0293 Q70.1594,221.6387 69.925,221.9043 Q69.6906,222.1699 69.3156,222.1699 Q68.9719,222.1699 68.7688,221.9668 Q68.5656,221.7793 68.4563,221.2637 Q68.4094,220.9043 68.2219,220.7168 Q67.8938,220.3418 67.2844,220.123 Q66.675,219.9043 66.05,219.9043 Q65.2844,219.9043 64.6438,220.2324 Q64.0188,220.5605 63.5188,221.3105 Q63.0344,222.0605 63.0344,223.0918 L63.0344,224.1855 Q63.0344,225.4199 63.925,226.248 Q64.8156,227.0605 66.4094,227.0605 Q67.3469,227.0605 68.0031,226.8105 Q68.3938,226.6543 68.8156,226.2168 Q69.0813,225.9512 69.2219,225.873 Q69.3781,225.7949 69.5813,225.7949 Q69.9094,225.7949 70.1594,226.0605 Q70.425,226.3105 70.425,226.6543 Q70.425,226.998 70.0813,227.4043 Q69.5813,227.9824 68.7844,228.3105 Q67.7063,228.7637 66.4094,228.7637 Q64.8938,228.7637 63.6906,228.1387 Q62.7063,227.6387 62.0188,226.5762 Q61.3313,225.498 61.3313,224.2168 L61.3313,223.0605 Q61.3313,221.7324 61.9406,220.5918 Q62.5656,219.4355 63.6594,218.8262 Q64.7531,218.2012 65.9875,218.2012 Q66.7219,218.2012 67.3625,218.373 Q68.0188,218.5293 68.5656,218.8887 Z "
                  fill="#000000"/>
            <text fill="#000000" font-family="sans-serif" font-size="14" lengthAdjust="spacing" textLength="32" x="86.2"
                  y="228.8105">Vaca
            </text>
            <line style="stroke:#181818;stroke-width:0.5;" x1="23" x2="149" y1="239.0137" y2="239.0137"/>
            <line style="stroke:#181818;stroke-width:0.5;" x1="23" x2="149" y1="247.0137" y2="247.0137"/>
            <ellipse cx="33" cy="261.8242" fill="#84BE84" rx="3" ry="3" style="stroke:#038048;stroke-width:1.0;"/>
            <text fill="#000000" font-family="sans-serif" font-size="14" lengthAdjust="spacing" textLength="102" x="42"
                  y="266.1211">void emitirSom()
            </text>
        </g><!--class Gato-->
        <g id="elem_Gato">
            <rect codeLine="14" fill="#F1F1F1" height="66.6211" id="Gato" rx="2.5" ry="2.5"
                  style="stroke:#181818;stroke-width:0.5;" width="128" x="185" y="207.0137"/>
            <ellipse cx="229.25" cy="223.0137" fill="#ADD1B2" rx="11" ry="11" style="stroke:#181818;stroke-width:1.0;"/>
            <path d="M232.0156,218.8887 Q232.1719,218.6699 232.3594,218.5605 Q232.5469,218.4512 232.7656,218.4512 Q233.1406,218.4512 233.375,218.7168 Q233.6094,218.9668 233.6094,219.5762 L233.6094,221.0293 Q233.6094,221.6387 233.375,221.9043 Q233.1406,222.1699 232.7656,222.1699 Q232.4219,222.1699 232.2188,221.9668 Q232.0156,221.7793 231.9063,221.2637 Q231.8594,220.9043 231.6719,220.7168 Q231.3438,220.3418 230.7344,220.123 Q230.125,219.9043 229.5,219.9043 Q228.7344,219.9043 228.0938,220.2324 Q227.4688,220.5605 226.9688,221.3105 Q226.4844,222.0605 226.4844,223.0918 L226.4844,224.1855 Q226.4844,225.4199 227.375,226.248 Q228.2656,227.0605 229.8594,227.0605 Q230.7969,227.0605 231.4531,226.8105 Q231.8438,226.6543 232.2656,226.2168 Q232.5313,225.9512 232.6719,225.873 Q232.8281,225.7949 233.0313,225.7949 Q233.3594,225.7949 233.6094,226.0605 Q233.875,226.3105 233.875,226.6543 Q233.875,226.998 233.5313,227.4043 Q233.0313,227.9824 232.2344,228.3105 Q231.1563,228.7637 229.8594,228.7637 Q228.3438,228.7637 227.1406,228.1387 Q226.1563,227.6387 225.4688,226.5762 Q224.7813,225.498 224.7813,224.2168 L224.7813,223.0605 Q224.7813,221.7324 225.3906,220.5918 Q226.0156,219.4355 227.1094,218.8262 Q228.2031,218.2012 229.4375,218.2012 Q230.1719,218.2012 230.8125,218.373 Q231.4688,218.5293 232.0156,218.8887 Z "
                  fill="#000000"/>
            <text fill="#000000" font-family="sans-serif" font-size="14" lengthAdjust="spacing" textLength="31"
                  x="249.75" y="228.8105">Gato
            </text>
            <line style="stroke:#181818;stroke-width:0.5;" x1="186" x2="312" y1="239.0137" y2="239.0137"/>
            <line style="stroke:#181818;stroke-width:0.5;" x1="186" x2="312" y1="247.0137" y2="247.0137"/>
            <ellipse cx="196" cy="261.8242" fill="#84BE84" rx="3" ry="3" style="stroke:#038048;stroke-width:1.0;"/>
            <text fill="#000000" font-family="sans-serif" font-size="14" lengthAdjust="spacing" textLength="102" x="205"
                  y="266.1211">void emitirSom()
            </text>
        </g><!--class Ovelha-->
        <g id="elem_Ovelha">
            <rect codeLine="18" fill="#F1F1F1" height="66.6211" id="Ovelha" rx="2.5" ry="2.5"
                  style="stroke:#181818;stroke-width:0.5;" width="128" x="348" y="207.0137"/>
            <ellipse cx="385.95" cy="223.0137" fill="#ADD1B2" rx="11" ry="11" style="stroke:#181818;stroke-width:1.0;"/>
            <path d="M388.7156,218.8887 Q388.8719,218.6699 389.0594,218.5605 Q389.2469,218.4512 389.4656,218.4512 Q389.8406,218.4512 390.075,218.7168 Q390.3094,218.9668 390.3094,219.5762 L390.3094,221.0293 Q390.3094,221.6387 390.075,221.9043 Q389.8406,222.1699 389.4656,222.1699 Q389.1219,222.1699 388.9188,221.9668 Q388.7156,221.7793 388.6063,221.2637 Q388.5594,220.9043 388.3719,220.7168 Q388.0438,220.3418 387.4344,220.123 Q386.825,219.9043 386.2,219.9043 Q385.4344,219.9043 384.7938,220.2324 Q384.1688,220.5605 383.6688,221.3105 Q383.1844,222.0605 383.1844,223.0918 L383.1844,224.1855 Q383.1844,225.4199 384.075,226.248 Q384.9656,227.0605 386.5594,227.0605 Q387.4969,227.0605 388.1531,226.8105 Q388.5438,226.6543 388.9656,226.2168 Q389.2313,225.9512 389.3719,225.873 Q389.5281,225.7949 389.7313,225.7949 Q390.0594,225.7949 390.3094,226.0605 Q390.575,226.3105 390.575,226.6543 Q390.575,226.998 390.2313,227.4043 Q389.7313,227.9824 388.9344,228.3105 Q387.8563,228.7637 386.5594,228.7637 Q385.0438,228.7637 383.8406,228.1387 Q382.8563,227.6387 382.1688,226.5762 Q381.4813,225.498 381.4813,224.2168 L381.4813,223.0605 Q381.4813,221.7324 382.0906,220.5918 Q382.7156,219.4355 383.8094,218.8262 Q384.9031,218.2012 386.1375,218.2012 Q386.8719,218.2012 387.5125,218.373 Q388.1688,218.5293 388.7156,218.8887 Z "
                  fill="#000000"/>
            <text fill="#000000" font-family="sans-serif" font-size="14" lengthAdjust="spacing" textLength="45"
                  x="405.05" y="228.8105">Ovelha
            </text>
            <line style="stroke:#181818;stroke-width:0.5;" x1="349" x2="475" y1="239.0137" y2="239.0137"/>
            <line style="stroke:#181818;stroke-width:0.5;" x1="349" x2="475" y1="247.0137" y2="247.0137"/>
            <ellipse cx="359" cy="261.8242" fill="#84BE84" rx="3" ry="3" style="stroke:#038048;stroke-width:1.0;"/>
            <text fill="#000000" font-family="sans-serif" font-size="14" lengthAdjust="spacing" textLength="102" x="368"
                  y="266.1211">void emitirSom()
            </text>
        </g><!--reverse link Animal to Vaca-->
        <g id="link_Animal_Vaca">
            <path codeLine="22" d="M175.58,160.6537 C157.44,176.6237 138.75,193.0737 123.17,206.7837 " fill="none"
                  id="Animal-backto-Vaca" style="stroke:#181818;stroke-width:1.0;"/>
            <polygon fill="none" points="170.98,155.3737,190.61,147.4137,180.23,165.8837,170.98,155.3737"
                     style="stroke:#181818;stroke-width:1.0;"/>
        </g><!--reverse link Animal to Gato-->
        <g id="link_Animal_Gato">
            <path codeLine="23" d="M249,167.8637 C249,181.4937 249,195.1337 249,206.7837 " fill="none"
                  id="Animal-backto-Gato" style="stroke:#181818;stroke-width:1.0;"/>
            <polygon fill="none" points="242,167.4137,249,147.4137,256,167.4137,242,167.4137"
                     style="stroke:#181818;stroke-width:1.0;"/>
        </g><!--reverse link Animal to Ovelha-->
        <g id="link_Animal_Ovelha">
            <path codeLine="24" d="M322.42,160.6537 C340.56,176.6237 359.25,193.0737 374.83,206.7837 " fill="none"
                  id="Animal-backto-Ovelha" style="stroke:#181818;stroke-width:1.0;"/>
            <polygon fill="none" points="317.77,165.8837,307.39,147.4137,327.02,155.3737,317.77,165.8837"
                     style="stroke:#181818;stroke-width:1.0;"/>
        </g><!--SRC=[AqXCpavCJrL8BCr9D3HIK51sSN6fvk9I08BadCJYOgY4dcDUPcvYZa8rM0O4T1M2Iueoyz8Lyl9pKv54C_DA5F9ASrEByWCIInABuJ9r2cNvcIaAgRcP9Pb5mVcv6ffWgLeiTeKb9YSYsQHDl4xtn99yydJwbwNcP11lAsgesDJewY8xde0Ia2i9A84uXwkM2m00]-->
    </g>
</svg>