<?xml version="1.0" encoding="us-ascii" standalone="no"?>
<svg xmlns="http://www.w3.org/2000/svg" contentStyleType="text/css" height="460px" preserveAspectRatio="none"
     style="width:643px;height:460px;background:#FFFFFF;" version="1.1" viewBox="0 0 643 460" width="643px"
     zoomAndPan="magnify">
    <defs/>
    <g><!--cluster aula13-->
        <g id="cluster_aula13">
            <path d="M8.5,6.0137 L54.5,6.0137 A3.75,3.75 0 0 1 57,8.5137 L64,30.6348 L633.5,30.6348 A2.5,2.5 0 0 1 636,33.1348 L636,450.5137 A2.5,2.5 0 0 1 633.5,453.0137 L8.5,453.0137 A2.5,2.5 0 0 1 6,450.5137 L6,8.5137 A2.5,2.5 0 0 1 8.5,6.0137 "
                  fill="#DDDDDD" style="stroke:#000000;stroke-width:1.5;"/>
            <line style="stroke:#000000;stroke-width:1.5;" x1="6" x2="64" y1="30.6348" y2="30.6348"/>
            <text fill="#000000" font-family="sans-serif" font-size="14" font-weight="bold" lengthAdjust="spacing"
                  textLength="45" x="10" y="23.1211">aula13
            </text>
        </g><!--class Leite-->
        <g id="elem_Leite">
            <rect codeLine="4" fill="#F1F1F1" height="103.8633" id="Leite" rx="2.5" ry="2.5"
                  style="stroke:#181818;stroke-width:0.5;" width="175" x="22.5" y="333.0137"/>
            <ellipse cx="90.25" cy="349.0137" fill="#ADD1B2" rx="11" ry="11" style="stroke:#181818;stroke-width:1.0;"/>
            <path d="M93.0156,344.8887 Q93.1719,344.6699 93.3594,344.5605 Q93.5469,344.4512 93.7656,344.4512 Q94.1406,344.4512 94.375,344.7168 Q94.6094,344.9668 94.6094,345.5762 L94.6094,347.0293 Q94.6094,347.6387 94.375,347.9043 Q94.1406,348.1699 93.7656,348.1699 Q93.4219,348.1699 93.2188,347.9668 Q93.0156,347.7793 92.9063,347.2637 Q92.8594,346.9043 92.6719,346.7168 Q92.3438,346.3418 91.7344,346.123 Q91.125,345.9043 90.5,345.9043 Q89.7344,345.9043 89.0938,346.2324 Q88.4688,346.5605 87.9688,347.3105 Q87.4844,348.0605 87.4844,349.0918 L87.4844,350.1855 Q87.4844,351.4199 88.375,352.248 Q89.2656,353.0605 90.8594,353.0605 Q91.7969,353.0605 92.4531,352.8105 Q92.8438,352.6543 93.2656,352.2168 Q93.5313,351.9512 93.6719,351.873 Q93.8281,351.7949 94.0313,351.7949 Q94.3594,351.7949 94.6094,352.0605 Q94.875,352.3105 94.875,352.6543 Q94.875,352.998 94.5313,353.4043 Q94.0313,353.9824 93.2344,354.3105 Q92.1563,354.7637 90.8594,354.7637 Q89.3438,354.7637 88.1406,354.1387 Q87.1563,353.6387 86.4688,352.5762 Q85.7813,351.498 85.7813,350.2168 L85.7813,349.0605 Q85.7813,347.7324 86.3906,346.5918 Q87.0156,345.4355 88.1094,344.8262 Q89.2031,344.2012 90.4375,344.2012 Q91.1719,344.2012 91.8125,344.373 Q92.4688,344.5293 93.0156,344.8887 Z "
                  fill="#000000"/>
            <text fill="#000000" font-family="sans-serif" font-size="14" lengthAdjust="spacing" textLength="31"
                  x="110.75" y="354.8105">Leite
            </text>
            <line style="stroke:#181818;stroke-width:0.5;" x1="23.5" x2="196.5" y1="365.0137" y2="365.0137"/>
            <rect fill="none" height="6" style="stroke:#C82930;stroke-width:1.0;" width="6" x="30.5" y="376.8242"/>
            <text fill="#000000" font-family="sans-serif" font-size="14" lengthAdjust="spacing" textLength="73" x="42.5"
                  y="384.1211">int valeDias
            </text>
            <line style="stroke:#181818;stroke-width:0.5;" x1="23.5" x2="196.5" y1="391.6348" y2="391.6348"/>
            <ellipse cx="33.5" cy="406.4453" fill="#84BE84" rx="3" ry="3" style="stroke:#038048;stroke-width:1.0;"/>
            <text fill="#000000" font-family="sans-serif" font-size="14" lengthAdjust="spacing" textLength="149"
                  x="42.5" y="410.7422">double custoBeneficio()
            </text>
            <ellipse cx="33.5" cy="425.0664" fill="#84BE84" rx="3" ry="3" style="stroke:#038048;stroke-width:1.0;"/>
            <text fill="#000000" font-family="sans-serif" font-size="14" lengthAdjust="spacing" textLength="142"
                  x="42.5" y="429.3633">int compareTo(Object)
            </text>
        </g><!--class Biscoito-->
        <g id="elem_Biscoito">
            <rect codeLine="10" fill="#F1F1F1" height="103.8633" id="Biscoito" rx="2.5" ry="2.5"
                  style="stroke:#181818;stroke-width:0.5;" width="177" x="232.5" y="333.0137"/>
            <ellipse cx="292.25" cy="349.0137" fill="#ADD1B2" rx="11" ry="11" style="stroke:#181818;stroke-width:1.0;"/>
            <path d="M295.0156,344.8887 Q295.1719,344.6699 295.3594,344.5605 Q295.5469,344.4512 295.7656,344.4512 Q296.1406,344.4512 296.375,344.7168 Q296.6094,344.9668 296.6094,345.5762 L296.6094,347.0293 Q296.6094,347.6387 296.375,347.9043 Q296.1406,348.1699 295.7656,348.1699 Q295.4219,348.1699 295.2188,347.9668 Q295.0156,347.7793 294.9063,347.2637 Q294.8594,346.9043 294.6719,346.7168 Q294.3438,346.3418 293.7344,346.123 Q293.125,345.9043 292.5,345.9043 Q291.7344,345.9043 291.0938,346.2324 Q290.4688,346.5605 289.9688,347.3105 Q289.4844,348.0605 289.4844,349.0918 L289.4844,350.1855 Q289.4844,351.4199 290.375,352.248 Q291.2656,353.0605 292.8594,353.0605 Q293.7969,353.0605 294.4531,352.8105 Q294.8438,352.6543 295.2656,352.2168 Q295.5313,351.9512 295.6719,351.873 Q295.8281,351.7949 296.0313,351.7949 Q296.3594,351.7949 296.6094,352.0605 Q296.875,352.3105 296.875,352.6543 Q296.875,352.998 296.5313,353.4043 Q296.0313,353.9824 295.2344,354.3105 Q294.1563,354.7637 292.8594,354.7637 Q291.3438,354.7637 290.1406,354.1387 Q289.1563,353.6387 288.4688,352.5762 Q287.7813,351.498 287.7813,350.2168 L287.7813,349.0605 Q287.7813,347.7324 288.3906,346.5918 Q289.0156,345.4355 290.1094,344.8262 Q291.2031,344.2012 292.4375,344.2012 Q293.1719,344.2012 293.8125,344.373 Q294.4688,344.5293 295.0156,344.8887 Z "
                  fill="#000000"/>
            <text fill="#000000" font-family="sans-serif" font-size="14" lengthAdjust="spacing" textLength="49"
                  x="312.75" y="354.8105">Biscoito
            </text>
            <line style="stroke:#181818;stroke-width:0.5;" x1="233.5" x2="408.5" y1="365.0137" y2="365.0137"/>
            <rect fill="none" height="6" style="stroke:#C82930;stroke-width:1.0;" width="6" x="240.5" y="376.8242"/>
            <text fill="#000000" font-family="sans-serif" font-size="14" lengthAdjust="spacing" textLength="104"
                  x="252.5" y="384.1211">int cancerigenos
            </text>
            <line style="stroke:#181818;stroke-width:0.5;" x1="233.5" x2="408.5" y1="391.6348" y2="391.6348"/>
            <ellipse cx="243.5" cy="406.4453" fill="#84BE84" rx="3" ry="3" style="stroke:#038048;stroke-width:1.0;"/>
            <text fill="#000000" font-family="sans-serif" font-size="14" lengthAdjust="spacing" textLength="149"
                  x="252.5" y="410.7422">double custoBeneficio()
            </text>
            <ellipse cx="243.5" cy="425.0664" fill="#84BE84" rx="3" ry="3" style="stroke:#038048;stroke-width:1.0;"/>
            <text fill="#000000" font-family="sans-serif" font-size="14" lengthAdjust="spacing" textLength="151"
                  x="252.5" y="429.3633">int compareTo(Produto)
            </text>
        </g><!--class Shampoo-->
        <g id="elem_Shampoo">
            <rect codeLine="16" fill="#F1F1F1" height="103.8633" id="Shampoo" rx="2.5" ry="2.5"
                  style="stroke:#181818;stroke-width:0.5;" width="175" x="444.5" y="333.0137"/>
            <ellipse cx="497.75" cy="349.0137" fill="#ADD1B2" rx="11" ry="11" style="stroke:#181818;stroke-width:1.0;"/>
            <path d="M500.5156,344.8887 Q500.6719,344.6699 500.8594,344.5605 Q501.0469,344.4512 501.2656,344.4512 Q501.6406,344.4512 501.875,344.7168 Q502.1094,344.9668 502.1094,345.5762 L502.1094,347.0293 Q502.1094,347.6387 501.875,347.9043 Q501.6406,348.1699 501.2656,348.1699 Q500.9219,348.1699 500.7188,347.9668 Q500.5156,347.7793 500.4063,347.2637 Q500.3594,346.9043 500.1719,346.7168 Q499.8438,346.3418 499.2344,346.123 Q498.625,345.9043 498,345.9043 Q497.2344,345.9043 496.5938,346.2324 Q495.9688,346.5605 495.4688,347.3105 Q494.9844,348.0605 494.9844,349.0918 L494.9844,350.1855 Q494.9844,351.4199 495.875,352.248 Q496.7656,353.0605 498.3594,353.0605 Q499.2969,353.0605 499.9531,352.8105 Q500.3438,352.6543 500.7656,352.2168 Q501.0313,351.9512 501.1719,351.873 Q501.3281,351.7949 501.5313,351.7949 Q501.8594,351.7949 502.1094,352.0605 Q502.375,352.3105 502.375,352.6543 Q502.375,352.998 502.0313,353.4043 Q501.5313,353.9824 500.7344,354.3105 Q499.6563,354.7637 498.3594,354.7637 Q496.8438,354.7637 495.6406,354.1387 Q494.6563,353.6387 493.9688,352.5762 Q493.2813,351.498 493.2813,350.2168 L493.2813,349.0605 Q493.2813,347.7324 493.8906,346.5918 Q494.5156,345.4355 495.6094,344.8262 Q496.7031,344.2012 497.9375,344.2012 Q498.6719,344.2012 499.3125,344.373 Q499.9688,344.5293 500.5156,344.8887 Z "
                  fill="#000000"/>
            <text fill="#000000" font-family="sans-serif" font-size="14" lengthAdjust="spacing" textLength="60"
                  x="518.25" y="354.8105">Shampoo
            </text>
            <line style="stroke:#181818;stroke-width:0.5;" x1="445.5" x2="618.5" y1="365.0137" y2="365.0137"/>
            <rect fill="none" height="6" style="stroke:#C82930;stroke-width:1.0;" width="6" x="452.5" y="376.8242"/>
            <text fill="#000000" font-family="sans-serif" font-size="14" lengthAdjust="spacing" textLength="96"
                  x="464.5" y="384.1211">int irritabilidade
            </text>
            <line style="stroke:#181818;stroke-width:0.5;" x1="445.5" x2="618.5" y1="391.6348" y2="391.6348"/>
            <ellipse cx="455.5" cy="406.4453" fill="#84BE84" rx="3" ry="3" style="stroke:#038048;stroke-width:1.0;"/>
            <text fill="#000000" font-family="sans-serif" font-size="14" lengthAdjust="spacing" textLength="149"
                  x="464.5" y="410.7422">double custoBeneficio()
            </text>
            <ellipse cx="455.5" cy="425.0664" fill="#84BE84" rx="3" ry="3" style="stroke:#038048;stroke-width:1.0;"/>
            <text fill="#000000" font-family="sans-serif" font-size="14" lengthAdjust="spacing" textLength="142"
                  x="464.5" y="429.3633">int compareTo(Object)
            </text>
        </g><!--class Produto-->
        <g id="elem_Produto">
            <rect codeLine="22" fill="#F1F1F1" height="122.4844" id="Produto" rx="2.5" ry="2.5"
                  style="stroke:#181818;stroke-width:0.5;" width="175" x="233.5" y="151.0137"/>
            <ellipse cx="291.75" cy="167.0137" fill="#A9DCDF" rx="11" ry="11" style="stroke:#181818;stroke-width:1.0;"/>
            <path d="M293.9375,168.7793 L289.7969,168.7793 L289.375,169.8105 L289.7969,169.8105 Q290.4063,169.8105 290.6719,170.0449 Q290.9375,170.2793 290.9375,170.6699 Q290.9375,171.0449 290.6719,171.2793 Q290.4063,171.5137 289.7969,171.5137 L287.5,171.5137 Q286.8906,171.5137 286.6406,171.2793 Q286.375,171.0449 286.375,170.6543 Q286.375,170.2793 286.6563,170.0449 Q286.9219,169.7949 287.5469,169.8105 L290.2188,163.1543 L289.1094,163.1543 Q288.5,163.1543 288.2344,162.9199 Q287.9688,162.6855 287.9688,162.2949 Q287.9688,161.9199 288.2344,161.6855 Q288.5,161.4512 289.1094,161.4512 L292.7813,161.4512 L296.1719,169.8105 Q296.7656,169.8105 296.9531,169.9512 Q297.3438,170.2168 297.3438,170.6699 Q297.3438,171.0449 297.0781,171.2793 Q296.8281,171.5137 296.2188,171.5137 L293.9219,171.5137 Q293.3125,171.5137 293.0469,171.2793 Q292.7813,171.0449 292.7813,170.6543 Q292.7813,170.2793 293.0469,170.0449 Q293.3125,169.8105 293.9219,169.8105 L294.3438,169.8105 L293.9375,168.7793 Z M293.2188,167.0762 L291.8594,163.7012 L290.4844,167.0762 L293.2188,167.0762 Z "
                  fill="#000000"/>
            <text fill="#000000" font-family="sans-serif" font-size="14" font-style="italic" lengthAdjust="spacing"
                  textLength="50" x="312.25" y="172.8105">Produto
            </text>
            <line style="stroke:#181818;stroke-width:0.5;" x1="234.5" x2="407.5" y1="183.0137" y2="183.0137"/>
            <rect fill="none" height="6" style="stroke:#C82930;stroke-width:1.0;" width="6" x="241.5" y="194.8242"/>
            <text fill="#000000" font-family="sans-serif" font-size="14" lengthAdjust="spacing" textLength="76"
                  x="253.5" y="202.1211">String nome
            </text>
            <rect fill="none" height="6" style="stroke:#C82930;stroke-width:1.0;" width="6" x="241.5" y="213.4453"/>
            <text fill="#000000" font-family="sans-serif" font-size="14" lengthAdjust="spacing" textLength="83"
                  x="253.5" y="220.7422">double preco
            </text>
            <line style="stroke:#181818;stroke-width:0.5;" x1="234.5" x2="407.5" y1="228.2559" y2="228.2559"/>
            <ellipse cx="244.5" cy="243.0664" fill="#84BE84" rx="3" ry="3" style="stroke:#038048;stroke-width:1.0;"/>
            <text fill="#000000" font-family="sans-serif" font-size="14" lengthAdjust="spacing" textLength="142"
                  x="253.5" y="247.3633">int compareTo(Object)
            </text>
            <ellipse cx="244.5" cy="261.6875" fill="#84BE84" rx="3" ry="3" style="stroke:#038048;stroke-width:1.0;"/>
            <text fill="#000000" font-family="sans-serif" font-size="14" font-style="italic" lengthAdjust="spacing"
                  textLength="149" x="253.5" y="265.9844">double custoBeneficio()
            </text>
        </g><!--class Comparable-->
        <g id="elem_Comparable">
            <rect fill="#F1F1F1" height="48" id="Comparable" rx="2.5" ry="2.5" style="stroke:#181818;stroke-width:0.5;"
                  width="109" x="266.5" y="43.0137"/>
            <ellipse cx="281.5" cy="59.0137" fill="#ADD1B2" rx="11" ry="11" style="stroke:#181818;stroke-width:1.0;"/>
            <path d="M284.2656,54.8887 Q284.4219,54.6699 284.6094,54.5605 Q284.7969,54.4512 285.0156,54.4512 Q285.3906,54.4512 285.625,54.7168 Q285.8594,54.9668 285.8594,55.5762 L285.8594,57.0293 Q285.8594,57.6387 285.625,57.9043 Q285.3906,58.1699 285.0156,58.1699 Q284.6719,58.1699 284.4688,57.9668 Q284.2656,57.7793 284.1563,57.2637 Q284.1094,56.9043 283.9219,56.7168 Q283.5938,56.3418 282.9844,56.123 Q282.375,55.9043 281.75,55.9043 Q280.9844,55.9043 280.3438,56.2324 Q279.7188,56.5605 279.2188,57.3105 Q278.7344,58.0605 278.7344,59.0918 L278.7344,60.1855 Q278.7344,61.4199 279.625,62.248 Q280.5156,63.0605 282.1094,63.0605 Q283.0469,63.0605 283.7031,62.8105 Q284.0938,62.6543 284.5156,62.2168 Q284.7813,61.9512 284.9219,61.873 Q285.0781,61.7949 285.2813,61.7949 Q285.6094,61.7949 285.8594,62.0605 Q286.125,62.3105 286.125,62.6543 Q286.125,62.998 285.7813,63.4043 Q285.2813,63.9824 284.4844,64.3105 Q283.4063,64.7637 282.1094,64.7637 Q280.5938,64.7637 279.3906,64.1387 Q278.4063,63.6387 277.7188,62.5762 Q277.0313,61.498 277.0313,60.2168 L277.0313,59.0605 Q277.0313,57.7324 277.6406,56.5918 Q278.2656,55.4355 279.3594,54.8262 Q280.4531,54.2012 281.6875,54.2012 Q282.4219,54.2012 283.0625,54.373 Q283.7188,54.5293 284.2656,54.8887 Z "
                  fill="#000000"/>
            <text fill="#000000" font-family="sans-serif" font-size="14" lengthAdjust="spacing" textLength="77"
                  x="295.5" y="64.8105">Comparable
            </text>
            <line style="stroke:#181818;stroke-width:0.5;" x1="267.5" x2="374.5" y1="75.0137" y2="75.0137"/>
            <line style="stroke:#181818;stroke-width:0.5;" x1="267.5" x2="374.5" y1="83.0137" y2="83.0137"/>
        </g><!--reverse link Produto to Leite-->
        <g id="link_Produto_Leite">
            <path codeLine="29" d="M231.09,285.8737 C211.56,301.7037 191.3,318.1237 173.07,332.9037 " fill="none"
                  id="Produto-backto-Leite" style="stroke:#181818;stroke-width:1.0;"/>
            <polygon fill="none" points="226.96,280.2137,246.91,273.0637,235.78,291.0937,226.96,280.2137"
                     style="stroke:#181818;stroke-width:1.0;"/>
        </g><!--reverse link Produto to Biscoito-->
        <g id="link_Produto_Biscoito">
            <path codeLine="30" d="M321,293.3537 C321,306.7637 321,320.3437 321,332.7637 " fill="none"
                  id="Produto-backto-Biscoito" style="stroke:#181818;stroke-width:1.0;"/>
            <polygon fill="none" points="314,293.3037,321,273.3037,328,293.3037,314,293.3037"
                     style="stroke:#181818;stroke-width:1.0;"/>
        </g><!--reverse link Produto to Shampoo-->
        <g id="link_Produto_Shampoo">
            <path codeLine="31" d="M410.91,285.8737 C430.44,301.7037 450.7,318.1237 468.93,332.9037 " fill="none"
                  id="Produto-backto-Shampoo" style="stroke:#181818;stroke-width:1.0;"/>
            <polygon fill="none" points="406.22,291.0937,395.09,273.0637,415.04,280.2137,406.22,291.0937"
                     style="stroke:#181818;stroke-width:1.0;"/>
        </g><!--reverse link Comparable to Produto-->
        <g id="link_Comparable_Produto">
            <path codeLine="32" d="M321,111.3137 C321,123.8137 321,137.6837 321,151.0137 " fill="none"
                  id="Comparable-backto-Produto" style="stroke:#181818;stroke-width:1.0;stroke-dasharray:7.0,7.0;"/>
            <polygon fill="none" points="314,111.3037,321,91.3037,328,111.3037,314,111.3037"
                     style="stroke:#181818;stroke-width:1.0;"/>
        </g><!--SRC=[hP6nJiD038RtF8Kbbg8gaL3NJYKZ4aZb1Hp714DoZkwSBctUdQPS48U0I8WR_TlwFfzxf5Ti671eyMO3LsLPmZ7BuFoenH1YKDon69-JASX1dC41Mou5mwMqXbg7gcMW8PZksF6JaEZgEgRJ06dNe-T7NTrNBqpsdetVm7OIICKquH4wOYyDE_qByy5hFPZ-3Dq_OzThoXJlnR2ILcgi-NysnIgOHxAK7lK-w7lpuXfmsd6iH6plcNIHjORZp1b_yvsTKedjAS-JmoyrpGTRwej__BdjzkAFa-7sL1HVfhCnUmC0]-->
    </g>
</svg>