<svg xmlns="http://www.w3.org/2000/svg" xmlns:xlink="http://www.w3.org/1999/xlink" xmlns:lucid="lucid" width="1006"
     height="1136">
    <g transform="translate(-393 0)" lucid:page-tab-id="p.wMcua6PRTZ">
        <path d="M0 0h1760v1360H0z" fill="#fff"/>
        <path d="M1087.07 552.5h219.78v196h-219.78z" stroke="#333" stroke-width="2" fill="#fff"/>
        <path d="M1087.07 598.1h219.78m-219.78 104.8h219.78" stroke="#333" stroke-width="2" fill="none"/>
        <use xlink:href="#a"
             transform="matrix(1,0,0,1,1095.065731122596,560.5) translate(69.17962962962963 19.933333333333334)"/>
        <use xlink:href="#b" transform="matrix(1,0,0,1,1099.065731122596,606.1) translate(0 19.83333333333334)"/>
        <use xlink:href="#c"
             transform="matrix(1,0,0,1,1099.065731122596,606.1) translate(15.005555555555553 19.83333333333334)"/>
        <use xlink:href="#d"
             transform="matrix(1,0,0,1,1099.065731122596,606.1) translate(102.5722222222222 19.83333333333334)"/>
        <use xlink:href="#e"
             transform="matrix(1,0,0,1,1099.065731122596,606.1) translate(116.27592592592589 19.83333333333334)"/>
        <use xlink:href="#b" transform="matrix(1,0,0,1,1099.065731122596,606.1) translate(0 49.43333333333334)"/>
        <use xlink:href="#f"
             transform="matrix(1,0,0,1,1099.065731122596,606.1) translate(15.005555555555553 49.43333333333334)"/>
        <use xlink:href="#d"
             transform="matrix(1,0,0,1,1099.065731122596,606.1) translate(80.71481481481479 49.43333333333334)"/>
        <use xlink:href="#e"
             transform="matrix(1,0,0,1,1099.065731122596,606.1) translate(94.41851851851848 49.43333333333334)"/>
        <use xlink:href="#b" transform="matrix(1,0,0,1,1099.065731122596,606.1) translate(0 79.03333333333333)"/>
        <use xlink:href="#g"
             transform="matrix(1,0,0,1,1099.065731122596,606.1) translate(15.005555555555553 79.03333333333333)"/>
        <use xlink:href="#d"
             transform="matrix(1,0,0,1,1099.065731122596,606.1) translate(120.31851851851849 79.03333333333333)"/>
        <use xlink:href="#h"
             transform="matrix(1,0,0,1,1099.065731122596,606.1) translate(134.02222222222218 79.03333333333333)"/>
        <path d="M453.15 71.84a8 8 0 0 1 8-8h836.75a8 8 0 0 1 8 8v39.48a8 8 0 0 1-8 8H461.15a8 8 0 0 1-8-8z"
              stroke="#000" stroke-opacity="0" stroke-width="3" fill="#fff" fill-opacity="0"/>
        <use xlink:href="#i"
             transform="matrix(1,0,0,1,457.1465527853429,67.83761197833299) translate(249.87666666666672 32.806666666666665)"/>
        <use xlink:href="#j"
             transform="matrix(1,0,0,1,457.1465527853429,67.83761197833299) translate(427.83222222222224 32.806666666666665)"/>
        <use xlink:href="#k"
             transform="matrix(1,0,0,1,457.1465527853429,67.83761197833299) translate(481.65444444444444 32.806666666666665)"/>
        <path d="M453.15 120.16a8 8 0 0 1 8-8h837.7a8 8 0 0 1 8 8V123a8 8 0 0 1-8 8h-837.7a8 8 0 0 1-8-8z" stroke="#000"
              stroke-opacity="0" stroke-width="3" fill="#fff" fill-opacity="0"/>
        <use xlink:href="#l"
             transform="matrix(1,0,0,1,457.1465527853434,116.15522395689881) translate(132.01411522633748 23.805925925925923)"/>
        <use xlink:href="#m"
             transform="matrix(1,0,0,1,457.1465527853434,116.15522395689881) translate(209.69590534979426 23.805925925925923)"/>
        <use xlink:href="#n"
             transform="matrix(1,0,0,1,457.1465527853434,116.15522395689881) translate(334.3241975308642 23.805925925925923)"/>
        <use xlink:href="#o"
             transform="matrix(1,0,0,1,457.1465527853434,116.15522395689881) translate(371.0011522633745 23.805925925925923)"/>
        <use xlink:href="#p"
             transform="matrix(1,0,0,1,457.1465527853434,116.15522395689881) translate(435.40588477366254 23.805925925925923)"/>
        <use xlink:href="#q"
             transform="matrix(1,0,0,1,457.1465527853434,116.15522395689881) translate(551.158353909465 23.805925925925923)"/>
        <use xlink:href="#r"
             transform="matrix(1,0,0,1,457.1465527853434,116.15522395689881) translate(572.6510493827161 23.805925925925923)"/>
        <use xlink:href="#s"
             transform="matrix(1,0,0,1,457.1465527853434,116.15522395689881) translate(632.5811934156378 23.805925925925923)"/>
        <use xlink:href="#t"
             transform="matrix(1,0,0,1,457.1465527853434,116.15522395689881) translate(661.922757201646 23.805925925925923)"/>
        <path d="M667.17 537.5h236.25v226H667.17z" stroke="#333" stroke-width="2" fill="#fff"/>
        <path d="M667.17 583.1h236.25M667.17 717.5h236.25" stroke="#333" stroke-width="2" fill="none"/>
        <use xlink:href="#u"
             transform="matrix(1,0,0,1,675.1718730765656,545.5) translate(60.58425925925927 19.933333333333334)"/>
        <use xlink:href="#b" transform="matrix(1,0,0,1,679.1718730765656,591.1) translate(0 20.033333333333342)"/>
        <use xlink:href="#v"
             transform="matrix(1,0,0,1,679.1718730765656,591.1) translate(15.005555555555553 20.033333333333342)"/>
        <use xlink:href="#d"
             transform="matrix(1,0,0,1,679.1718730765656,591.1) translate(105.31296296296293 20.033333333333342)"/>
        <use xlink:href="#w"
             transform="matrix(1,0,0,1,679.1718730765656,591.1) translate(119.01666666666662 20.033333333333342)"/>
        <use xlink:href="#b" transform="matrix(1,0,0,1,679.1718730765656,591.1) translate(0 49.63333333333334)"/>
        <use xlink:href="#x"
             transform="matrix(1,0,0,1,679.1718730765656,591.1) translate(15.005555555555553 49.63333333333334)"/>
        <use xlink:href="#d"
             transform="matrix(1,0,0,1,679.1718730765656,591.1) translate(127.23888888888885 49.63333333333334)"/>
        <use xlink:href="#y"
             transform="matrix(1,0,0,1,679.1718730765656,591.1) translate(140.94259259259255 49.63333333333334)"/>
        <use xlink:href="#b" transform="matrix(1,0,0,1,679.1718730765656,591.1) translate(0 79.23333333333333)"/>
        <use xlink:href="#z"
             transform="matrix(1,0,0,1,679.1718730765656,591.1) translate(15.005555555555553 79.23333333333333)"/>
        <use xlink:href="#d"
             transform="matrix(1,0,0,1,679.1718730765656,591.1) translate(110.7259259259259 79.23333333333333)"/>
        <use xlink:href="#y"
             transform="matrix(1,0,0,1,679.1718730765656,591.1) translate(124.4296296296296 79.23333333333333)"/>
        <use xlink:href="#b" transform="matrix(1,0,0,1,679.1718730765656,591.1) translate(0 108.83333333333333)"/>
        <use xlink:href="#A"
             transform="matrix(1,0,0,1,679.1718730765656,591.1) translate(15.005555555555553 108.83333333333333)"/>
        <use xlink:href="#d"
             transform="matrix(1,0,0,1,679.1718730765656,591.1) translate(123.05925925925922 108.83333333333333)"/>
        <use xlink:href="#B"
             transform="matrix(1,0,0,1,679.1718730765656,591.1) translate(136.76296296296292 108.83333333333333)"/>
        <g>
            <use xlink:href="#C" transform="matrix(1,0,0,1,679.1718730765656,725.5) translate(0 19.933333333333334)"/>
            <use xlink:href="#D"
                 transform="matrix(1,0,0,1,679.1718730765656,725.5) translate(21.240740740740737 19.933333333333334)"/>
            <use xlink:href="#d"
                 transform="matrix(1,0,0,1,679.1718730765656,725.5) translate(97.70740740740737 19.933333333333334)"/>
            <use xlink:href="#h"
                 transform="matrix(1,0,0,1,679.1718730765656,725.5) translate(111.41111111111107 19.933333333333334)"/>
        </g>
        <path d="M457.5 240h280v166h-280z" stroke="#333" stroke-width="2" fill="#fff"/>
        <path d="M457.5 285.6h280m-280 75.2h280" stroke="#333" stroke-width="2" fill="none"/>
        <g>
            <use xlink:href="#E"
                 transform="matrix(1,0,0,1,465.4913531262107,248) translate(90.99166666666667 19.933333333333334)"/>
        </g>
        <g>
            <use xlink:href="#b" transform="matrix(1,0,0,1,469.4913531262107,293.6) translate(0 20.133333333333333)"/>
            <use xlink:href="#F"
                 transform="matrix(1,0,0,1,469.4913531262107,293.6) translate(15.005555555555553 20.133333333333333)"/>
            <use xlink:href="#d"
                 transform="matrix(1,0,0,1,469.4913531262107,293.6) translate(83.45555555555555 20.133333333333333)"/>
            <use xlink:href="#e"
                 transform="matrix(1,0,0,1,469.4913531262107,293.6) translate(97.15925925925924 20.133333333333333)"/>
            <use xlink:href="#b" transform="matrix(1,0,0,1,469.4913531262107,293.6) translate(0 49.73333333333333)"/>
            <use xlink:href="#G"
                 transform="matrix(1,0,0,1,469.4913531262107,293.6) translate(15.005555555555553 49.73333333333333)"/>
            <use xlink:href="#d"
                 transform="matrix(1,0,0,1,469.4913531262107,293.6) translate(54.74629629629628 49.73333333333333)"/>
            <use xlink:href="#B"
                 transform="matrix(1,0,0,1,469.4913531262107,293.6) translate(68.44999999999997 49.73333333333333)"/>
        </g>
        <g>
            <use xlink:href="#C" transform="matrix(1,0,0,1,469.4913531262107,368.8) translate(0 19.933333333333334)"/>
            <use xlink:href="#H"
                 transform="matrix(1,0,0,1,469.4913531262107,368.8) translate(21.240740740740737 19.933333333333334)"/>
            <use xlink:href="#d"
                 transform="matrix(1,0,0,1,469.4913531262107,368.8) translate(191.0296296296296 19.933333333333334)"/>
            <use xlink:href="#I"
                 transform="matrix(1,0,0,1,469.4913531262107,368.8) translate(204.7333333333333 19.933333333333334)"/>
        </g>
        <path d="M785.3 535.5v-51.75a12 12 0 0 0-12-12H609.5a12 12 0 0 1-12-12v-22" stroke="#333" stroke-width="2"
              fill="none"/>
        <path d="M786.3 536.5h-2v-1.03h2z" stroke="#333" stroke-width=".05" fill="#333"/>
        <path d="M597.5 408.4l14.84 14.86-14.85 15.15-14.86-15.14z" stroke="#333" stroke-width="2" fill="#333"/>
        <g>
            <use xlink:href="#J"
                 transform="matrix(1,0,0,1,605.4913531262107,440.04068317636694) translate(0 17.777777777777775)"/>
        </g>
        <g>
            <use xlink:href="#K"
                 transform="matrix(1,0,0,1,793.2968730765656,484.9665688853424) translate(0 17.777777777777775)"/>
        </g>
        <path d="M635.3 880h300v196h-300z" stroke="#333" stroke-width="2" fill="#fff"/>
        <path d="M635.3 925.6h300m-300 104.8h300" stroke="#333" stroke-width="2" fill="none"/>
        <g>
            <use xlink:href="#L"
                 transform="matrix(1,0,0,1,643.2968730765656,888) translate(115.3462962962963 19.933333333333334)"/>
        </g>
        <g>
            <use xlink:href="#b" transform="matrix(1,0,0,1,647.2968730765656,933.6) translate(0 19.83333333333334)"/>
            <use xlink:href="#M"
                 transform="matrix(1,0,0,1,647.2968730765656,933.6) translate(15.005555555555553 19.83333333333334)"/>
            <use xlink:href="#d"
                 transform="matrix(1,0,0,1,647.2968730765656,933.6) translate(54.67777777777776 19.83333333333334)"/>
            <use xlink:href="#w"
                 transform="matrix(1,0,0,1,647.2968730765656,933.6) translate(68.38148148148146 19.83333333333334)"/>
            <use xlink:href="#b" transform="matrix(1,0,0,1,647.2968730765656,933.6) translate(0 49.43333333333334)"/>
            <use xlink:href="#N"
                 transform="matrix(1,0,0,1,647.2968730765656,933.6) translate(15.005555555555553 49.43333333333334)"/>
            <use xlink:href="#d"
                 transform="matrix(1,0,0,1,647.2968730765656,933.6) translate(68.38148148148147 49.43333333333334)"/>
            <use xlink:href="#w"
                 transform="matrix(1,0,0,1,647.2968730765656,933.6) translate(82.08518518518517 49.43333333333334)"/>
            <use xlink:href="#b" transform="matrix(1,0,0,1,647.2968730765656,933.6) translate(0 79.03333333333333)"/>
            <use xlink:href="#O"
                 transform="matrix(1,0,0,1,647.2968730765656,933.6) translate(15.005555555555553 79.03333333333333)"/>
            <use xlink:href="#P"
                 transform="matrix(1,0,0,1,647.2968730765656,933.6) translate(62.9685185185185 79.03333333333333)"/>
        </g>
        <g>
            <use xlink:href="#C" transform="matrix(1,0,0,1,647.2968730765656,1038.4) translate(0 19.933333333333334)"/>
            <use xlink:href="#Q"
                 transform="matrix(1,0,0,1,647.2968730765656,1038.4) translate(21.240740740740737 19.933333333333334)"/>
            <use xlink:href="#d"
                 transform="matrix(1,0,0,1,647.2968730765656,1038.4) translate(151.0833333333333 19.933333333333334)"/>
            <use xlink:href="#R"
                 transform="matrix(1,0,0,1,647.2968730765656,1038.4) translate(164.78703703703698 19.933333333333334)"/>
            <use xlink:href="#d"
                 transform="matrix(1,0,0,1,647.2968730765656,1038.4) translate(231.79814814814807 19.933333333333334)"/>
            <use xlink:href="#S"
                 transform="matrix(1,0,0,1,647.2968730765656,1038.4) translate(245.50185185185177 19.933333333333334)"/>
        </g>
        <path d="M1085.07 650.5h-149.9" stroke="#333" stroke-width="2" fill="none"/>
        <path d="M1086.07 651.5h-1.03v-2h1.03z" stroke="#333" stroke-width=".05" fill="#333"/>
        <path d="M905.84 650.5l14.84-14.85 15.16 14.85-15.16 14.85z" stroke="#333" stroke-width="2" fill="#333"/>
        <g>
            <use xlink:href="#J"
                 transform="matrix(1,0,0,1,925.4240700280626,603.8333333333334) translate(0 17.777777777777775)"/>
        </g>
        <g>
            <use xlink:href="#J"
                 transform="matrix(1,0,0,1,1057.3422178014462,619.8333333333333) translate(0 17.777777777777775)"/>
        </g>
        <path d="M785.3 878v-9.3m0-9.3v-18.63m0-9.3v-18.62m0-9.3v-18.62m0-9.3v-9.3" stroke="#333" stroke-width="2"
              fill="none"/>
        <path d="M786.3 879h-2v-1.03h2z" stroke="#333" stroke-width=".05" fill="#333"/>
        <path d="M795.48 783.68l-10.18-17.22-10.18 17.22" stroke="#333" stroke-width="2" fill="none"/>
        <defs>
            <path fill="#333"
                  d="M67-125c0 53 21 87 73 88 37 1 54-22 65-47l45 17C233-25 199 4 140 4 58 4 20-42 15-125 8-235 124-281 211-232c18 10 29 29 36 50l-46 12c-8-25-30-41-62-41-52 0-71 34-72 86"
                  id="T"/>
            <path fill="#333"
                  d="M133-34C117-15 103 5 69 4 32 3 11-16 11-54c-1-60 55-63 116-61 1-26-3-47-28-47-18 1-26 9-28 27l-52-2c7-38 36-58 82-57s74 22 75 68l1 82c-1 14 12 18 25 15v27c-30 8-71 5-69-32zm-48 3c29 0 43-24 42-57-32 0-66-3-65 30 0 17 8 27 23 27"
                  id="U"/>
            <path fill="#333" d="M135-150c-39-12-60 13-60 57V0H25l-1-190h47c2 13-1 29 3 40 6-28 27-53 61-41v41" id="V"/>
            <path fill="#333"
                  d="M110-194c64 0 96 36 96 99 0 64-35 99-97 99-61 0-95-36-95-99 0-62 34-99 96-99zm-1 164c35 0 45-28 45-65 0-40-10-65-43-65-34 0-45 26-45 65 0 36 10 65 43 65"
                  id="W"/>
            <g id="a">
                <use transform="matrix(0.0685185185185185,0,0,0.0685185185185185,0,0)" xlink:href="#T"/>
                <use transform="matrix(0.0685185185185185,0,0,0.0685185185185185,17.746296296296293,0)"
                     xlink:href="#U"/>
                <use transform="matrix(0.0685185185185185,0,0,0.0685185185185185,31.449999999999996,0)"
                     xlink:href="#V"/>
                <use transform="matrix(0.0685185185185185,0,0,0.0685185185185185,41.042592592592584,0)"
                     xlink:href="#V"/>
                <use transform="matrix(0.0685185185185185,0,0,0.0685185185185185,50.63518518518518,0)" xlink:href="#W"/>
            </g>
            <path fill="#333" d="M16-82v-28h88v28H16" id="X"/>
            <use transform="matrix(0.0685185185185185,0,0,0.0685185185185185,0,0)" xlink:href="#X" id="b"/>
            <path fill="#333"
                  d="M210-169c-67 3-38 105-44 169h-31v-121c0-29-5-50-35-48C34-165 62-65 56 0H25l-1-190h30c1 10-1 24 2 32 10-44 99-50 107 0 11-21 27-35 58-36 85-2 47 119 55 194h-31v-121c0-29-5-49-35-48"
                  id="Y"/>
            <path fill="#333"
                  d="M100-194c62-1 85 37 85 99 1 63-27 99-86 99S16-35 15-95c0-66 28-99 85-99zM99-20c44 1 53-31 53-75 0-43-8-75-51-75s-53 32-53 75 10 74 51 75"
                  id="Z"/>
            <path fill="#333"
                  d="M85-194c31 0 48 13 60 33l-1-100h32l1 261h-30c-2-10 0-23-3-31C134-8 116 4 85 4 32 4 16-35 15-94c0-66 23-100 70-100zm9 24c-40 0-46 34-46 75 0 40 6 74 45 74 42 0 51-32 51-76 0-42-9-74-50-73"
                  id="aa"/>
            <path fill="#333"
                  d="M100-194c63 0 86 42 84 106H49c0 40 14 67 53 68 26 1 43-12 49-29l28 8c-11 28-37 45-77 45C44 4 14-33 15-96c1-61 26-98 85-98zm52 81c6-60-76-77-97-28-3 7-6 17-6 28h103"
                  id="ab"/>
            <path fill="#333" d="M24 0v-261h32V0H24" id="ac"/>
            <g id="c">
                <use transform="matrix(0.0685185185185185,0,0,0.0685185185185185,0,0)" xlink:href="#Y"/>
                <use transform="matrix(0.0685185185185185,0,0,0.0685185185185185,20.487037037037034,0)"
                     xlink:href="#Z"/>
                <use transform="matrix(0.0685185185185185,0,0,0.0685185185185185,34.190740740740736,0)"
                     xlink:href="#aa"/>
                <use transform="matrix(0.0685185185185185,0,0,0.0685185185185185,47.89444444444444,0)"
                     xlink:href="#ab"/>
                <use transform="matrix(0.0685185185185185,0,0,0.0685185185185185,61.598148148148134,0)"
                     xlink:href="#ac"/>
                <use transform="matrix(0.0685185185185185,0,0,0.0685185185185185,67.0111111111111,0)" xlink:href="#Z"/>
            </g>
            <path fill="#333" d="M33-154v-36h34v36H33zM33 0v-36h34V0H33" id="ad"/>
            <use transform="matrix(0.0685185185185185,0,0,0.0685185185185185,0,0)" xlink:href="#ad" id="d"/>
            <path fill="#333"
                  d="M185-189c-5-48-123-54-124 2 14 75 158 14 163 119 3 78-121 87-175 55-17-10-28-26-33-46l33-7c5 56 141 63 141-1 0-78-155-14-162-118-5-82 145-84 179-34 5 7 8 16 11 25"
                  id="ae"/>
            <path fill="#333" d="M59-47c-2 24 18 29 38 22v24C64 9 27 4 27-40v-127H5v-23h24l9-43h21v43h35v23H59v120"
                  id="af"/>
            <path fill="#333" d="M114-163C36-179 61-72 57 0H25l-1-190h30c1 12-1 29 2 39 6-27 23-49 58-41v29" id="ag"/>
            <path fill="#333" d="M24-231v-30h32v30H24zM24 0v-190h32V0H24" id="ah"/>
            <path fill="#333"
                  d="M117-194c89-4 53 116 60 194h-32v-121c0-31-8-49-39-48C34-167 62-67 57 0H25l-1-190h30c1 10-1 24 2 32 11-22 29-35 61-36"
                  id="ai"/>
            <path fill="#333"
                  d="M177-190C167-65 218 103 67 71c-23-6-38-20-44-43l32-5c15 47 100 32 89-28v-30C133-14 115 1 83 1 29 1 15-40 15-95c0-56 16-97 71-98 29-1 48 16 59 35 1-10 0-23 2-32h30zM94-22c36 0 50-32 50-73 0-42-14-75-50-75-39 0-46 34-46 75s6 73 46 73"
                  id="aj"/>
            <g id="e">
                <use transform="matrix(0.0685185185185185,0,0,0.0685185185185185,0,0)" xlink:href="#ae"/>
                <use transform="matrix(0.0685185185185185,0,0,0.0685185185185185,16.444444444444443,0)"
                     xlink:href="#af"/>
                <use transform="matrix(0.0685185185185185,0,0,0.0685185185185185,23.29629629629629,0)"
                     xlink:href="#ag"/>
                <use transform="matrix(0.0685185185185185,0,0,0.0685185185185185,31.449999999999996,0)"
                     xlink:href="#ah"/>
                <use transform="matrix(0.0685185185185185,0,0,0.0685185185185185,36.86296296296297,0)"
                     xlink:href="#ai"/>
                <use transform="matrix(0.0685185185185185,0,0,0.0685185185185185,50.56666666666666,0)"
                     xlink:href="#aj"/>
            </g>
            <path fill="#333"
                  d="M115-194c55 1 70 41 70 98S169 2 115 4C84 4 66-9 55-30l1 105H24l-1-265h31l2 30c10-21 28-34 59-34zm-8 174c40 0 45-34 45-75s-6-73-45-74c-42 0-51 32-51 76 0 43 10 73 51 73"
                  id="ak"/>
            <path fill="#333"
                  d="M141-36C126-15 110 5 73 4 37 3 15-17 15-53c-1-64 63-63 125-63 3-35-9-54-41-54-24 1-41 7-42 31l-33-3c5-37 33-52 76-52 45 0 72 20 72 64v82c-1 20 7 32 28 27v20c-31 9-61-2-59-35zM48-53c0 20 12 33 32 33 41-3 63-29 60-74-43 2-92-5-92 41"
                  id="al"/>
            <path fill="#333"
                  d="M96-169c-40 0-48 33-48 73s9 75 48 75c24 0 41-14 43-38l32 2c-6 37-31 61-74 61-59 0-76-41-82-99-10-93 101-131 147-64 4 7 5 14 7 22l-32 3c-4-21-16-35-41-35"
                  id="am"/>
            <g id="f">
                <use transform="matrix(0.0685185185185185,0,0,0.0685185185185185,0,0)" xlink:href="#ak"/>
                <use transform="matrix(0.0685185185185185,0,0,0.0685185185185185,13.7037037037037,0)" xlink:href="#ac"/>
                <use transform="matrix(0.0685185185185185,0,0,0.0685185185185185,19.116666666666664,0)"
                     xlink:href="#al"/>
                <use transform="matrix(0.0685185185185185,0,0,0.0685185185185185,32.82037037037036,0)"
                     xlink:href="#am"/>
                <use transform="matrix(0.0685185185185185,0,0,0.0685185185185185,45.15370370370369,0)"
                     xlink:href="#al"/>
            </g>
            <path fill="#333"
                  d="M96-169c-40 0-48 33-48 73s9 75 48 75c24 0 41-14 43-38l32 2c-6 37-31 61-74 61-59 0-76-41-82-99-10-93 101-131 147-64 4 7 5 14 7 22l-32 3c-4-21-16-35-41-35zm3 187c19-1 33 8 33 26 0 31-30 33-64 32V58c18 2 39 4 41-13 1-15-18-13-34-13L87 0h19"
                  id="an"/>
            <path fill="#333"
                  d="M30-248c118-7 216 8 213 122C240-48 200 0 122 0H30v-248zM63-27c89 8 146-16 146-99s-60-101-146-95v194"
                  id="ao"/>
            <g id="g">
                <use transform="matrix(0.0685185185185185,0,0,0.0685185185185185,0,0)" xlink:href="#ak"/>
                <use transform="matrix(0.0685185185185185,0,0,0.0685185185185185,13.7037037037037,0)" xlink:href="#ag"/>
                <use transform="matrix(0.0685185185185185,0,0,0.0685185185185185,21.8574074074074,0)" xlink:href="#ab"/>
                <use transform="matrix(0.0685185185185185,0,0,0.0685185185185185,35.5611111111111,0)" xlink:href="#an"/>
                <use transform="matrix(0.0685185185185185,0,0,0.0685185185185185,47.89444444444443,0)" xlink:href="#Z"/>
                <use transform="matrix(0.0685185185185185,0,0,0.0685185185185185,61.598148148148134,0)"
                     xlink:href="#ao"/>
                <use transform="matrix(0.0685185185185185,0,0,0.0685185185185185,79.34444444444443,0)"
                     xlink:href="#ah"/>
                <use transform="matrix(0.0685185185185185,0,0,0.0685185185185185,84.7574074074074,0)" xlink:href="#al"/>
            </g>
            <path fill="#333" d="M101-234c-31-9-42 10-38 44h38v23H63V0H32v-167H5v-23h27c-7-52 17-82 69-68v24" id="ap"/>
            <g id="h">
                <use transform="matrix(0.0685185185185185,0,0,0.0685185185185185,0,0)" xlink:href="#ap"/>
                <use transform="matrix(0.0685185185185185,0,0,0.0685185185185185,6.85185185185185,0)" xlink:href="#ac"/>
                <use transform="matrix(0.0685185185185185,0,0,0.0685185185185185,12.264814814814812,0)"
                     xlink:href="#Z"/>
                <use transform="matrix(0.0685185185185185,0,0,0.0685185185185185,25.968518518518515,0)"
                     xlink:href="#al"/>
                <use transform="matrix(0.0685185185185185,0,0,0.0685185185185185,39.67222222222222,0)"
                     xlink:href="#af"/>
            </g>
            <path fill="#a9afb8" d="M24 0v-248h52v208h133V0H24" id="aq"/>
            <path fill="#a9afb8"
                  d="M110-194c64 0 96 36 96 99 0 64-35 99-97 99-61 0-95-36-95-99 0-62 34-99 96-99zm-1 164c35 0 45-28 45-65 0-40-10-65-43-65-34 0-45 26-45 65 0 36 10 65 43 65"
                  id="ar"/>
            <path fill="#a9afb8"
                  d="M190-63c-7 42-38 67-86 67-59 0-84-38-90-98-12-110 154-137 174-36l-49 2c-2-19-15-32-35-32-30 0-35 28-38 64-6 74 65 87 74 30"
                  id="as"/>
            <path fill="#a9afb8"
                  d="M133-34C117-15 103 5 69 4 32 3 11-16 11-54c-1-60 55-63 116-61 1-26-3-47-28-47-18 1-26 9-28 27l-52-2c7-38 36-58 82-57s74 22 75 68l1 82c-1 14 12 18 25 15v27c-30 8-71 5-69-32zm-48 3c29 0 43-24 42-57-32 0-66-3-65 30 0 17 8 27 23 27"
                  id="at"/>
            <path fill="#a9afb8"
                  d="M88-194c31-1 46 15 58 34l-1-101h50l1 261h-48c-2-10 0-23-3-31C134-8 116 4 84 4 32 4 16-41 15-95c0-56 19-97 73-99zm17 164c33 0 40-30 41-66 1-37-9-64-41-64s-38 30-39 65c0 43 13 65 39 65"
                  id="au"/>
            <path fill="#a9afb8" d="M135-150c-39-12-60 13-60 57V0H25l-1-190h47c2 13-1 29 3 40 6-28 27-53 61-41v41"
                  id="av"/>
            <g id="i">
                <use transform="matrix(0.10370370370370367,0,0,0.10370370370370367,0,0)" xlink:href="#aq"/>
                <use transform="matrix(0.10370370370370367,0,0,0.10370370370370367,22.711111111111105,0)"
                     xlink:href="#ar"/>
                <use transform="matrix(0.10370370370370367,0,0,0.10370370370370367,45.42222222222221,0)"
                     xlink:href="#as"/>
                <use transform="matrix(0.10370370370370367,0,0,0.10370370370370367,66.16296296296295,0)"
                     xlink:href="#at"/>
                <use transform="matrix(0.10370370370370367,0,0,0.10370370370370367,86.90370370370368,0)"
                     xlink:href="#au"/>
                <use transform="matrix(0.10370370370370367,0,0,0.10370370370370367,109.61481481481478,0)"
                     xlink:href="#ar"/>
                <use transform="matrix(0.10370370370370367,0,0,0.10370370370370367,132.3259259259259,0)"
                     xlink:href="#av"/>
                <use transform="matrix(0.10370370370370367,0,0,0.10370370370370367,146.8444444444444,0)"
                     xlink:href="#at"/>
            </g>
            <path fill="#a9afb8"
                  d="M185-48c-13 30-37 53-82 52C43 2 14-33 14-96s30-98 90-98c62 0 83 45 84 108H66c0 31 8 55 39 56 18 0 30-7 34-22zm-45-69c5-46-57-63-70-21-2 6-4 13-4 21h74"
                  id="aw"/>
            <g id="j">
                <use transform="matrix(0.10370370370370367,0,0,0.10370370370370367,0,0)" xlink:href="#au"/>
                <use transform="matrix(0.10370370370370367,0,0,0.10370370370370367,22.711111111111105,0)"
                     xlink:href="#aw"/>
            </g>
            <path fill="#a9afb8"
                  d="M67-125c0 53 21 87 73 88 37 1 54-22 65-47l45 17C233-25 199 4 140 4 58 4 20-42 15-125 8-235 124-281 211-232c18 10 29 29 36 50l-46 12c-8-25-30-41-62-41-52 0-71 34-72 86"
                  id="ax"/>
            <path fill="#a9afb8"
                  d="M137-138c1-29-70-34-71-4 15 46 118 7 119 86 1 83-164 76-172 9l43-7c4 19 20 25 44 25 33 8 57-30 24-41C81-84 22-81 20-136c-2-80 154-74 161-7"
                  id="ay"/>
            <g id="k">
                <use transform="matrix(0.10370370370370367,0,0,0.10370370370370367,0,0)" xlink:href="#ax"/>
                <use transform="matrix(0.10370370370370367,0,0,0.10370370370370367,26.85925925925925,0)"
                     xlink:href="#at"/>
                <use transform="matrix(0.10370370370370367,0,0,0.10370370370370367,47.59999999999998,0)"
                     xlink:href="#av"/>
                <use transform="matrix(0.10370370370370367,0,0,0.10370370370370367,62.118518518518485,0)"
                     xlink:href="#av"/>
                <use transform="matrix(0.10370370370370367,0,0,0.10370370370370367,76.637037037037,0)"
                     xlink:href="#ar"/>
                <use transform="matrix(0.10370370370370367,0,0,0.10370370370370367,99.34814814814811,0)"
                     xlink:href="#ay"/>
            </g>
            <path fill="#a9afb8"
                  d="M30-248c87 1 191-15 191 75 0 78-77 80-158 76V0H30v-248zm33 125c57 0 124 11 124-50 0-59-68-47-124-48v98"
                  id="az"/>
            <path fill="#a9afb8"
                  d="M100-194c63 0 86 42 84 106H49c0 40 14 67 53 68 26 1 43-12 49-29l28 8c-11 28-37 45-77 45C44 4 14-33 15-96c1-61 26-98 85-98zm52 81c6-60-76-77-97-28-3 7-6 17-6 28h103"
                  id="aA"/>
            <path fill="#a9afb8"
                  d="M85-194c31 0 48 13 60 33l-1-100h32l1 261h-30c-2-10 0-23-3-31C134-8 116 4 85 4 32 4 16-35 15-94c0-66 23-100 70-100zm9 24c-40 0-46 34-46 75 0 40 6 74 45 74 42 0 51-32 51-76 0-42-9-74-50-73"
                  id="aB"/>
            <path fill="#a9afb8" d="M114-163C36-179 61-72 57 0H25l-1-190h30c1 12-1 29 2 39 6-27 23-49 58-41v29"
                  id="aC"/>
            <path fill="#a9afb8"
                  d="M100-194c62-1 85 37 85 99 1 63-27 99-86 99S16-35 15-95c0-66 28-99 85-99zM99-20c44 1 53-31 53-75 0-43-8-75-51-75s-53 32-53 75 10 74 51 75"
                  id="aD"/>
            <g id="l">
                <use transform="matrix(0.07335390946502056,0,0,0.07335390946502056,0,0)" xlink:href="#az"/>
                <use transform="matrix(0.07335390946502056,0,0,0.07335390946502056,17.604938271604933,0)"
                     xlink:href="#aA"/>
                <use transform="matrix(0.07335390946502056,0,0,0.07335390946502056,32.27572016460904,0)"
                     xlink:href="#aB"/>
                <use transform="matrix(0.07335390946502056,0,0,0.07335390946502056,46.94650205761315,0)"
                     xlink:href="#aC"/>
                <use transform="matrix(0.07335390946502056,0,0,0.07335390946502056,55.6756172839506,0)"
                     xlink:href="#aD"/>
            </g>
            <path fill="#a9afb8"
                  d="M160-131c35 5 61 23 61 61C221 17 115-2 30 0v-248c76 3 177-17 177 60 0 33-19 50-47 57zm-97-11c50-1 110 9 110-42 0-47-63-36-110-37v79zm0 115c55-2 124 14 124-45 0-56-70-42-124-44v89"
                  id="aE"/>
            <path fill="#a9afb8"
                  d="M117-194c89-4 53 116 60 194h-32v-121c0-31-8-49-39-48C34-167 62-67 57 0H25l-1-190h30c1 10-1 24 2 32 11-22 29-35 61-36"
                  id="aF"/>
            <path fill="#a9afb8" d="M24-231v-30h32v30H24zM24 0v-190h32V0H24" id="aG"/>
            <path fill="#a9afb8"
                  d="M96-169c-40 0-48 33-48 73s9 75 48 75c24 0 41-14 43-38l32 2c-6 37-31 61-74 61-59 0-76-41-82-99-10-93 101-131 147-64 4 7 5 14 7 22l-32 3c-4-21-16-35-41-35"
                  id="aH"/>
            <path fill="#a9afb8" d="M59-47c-2 24 18 29 38 22v24C64 9 27 4 27-40v-127H5v-23h24l9-43h21v43h35v23H59v120"
                  id="aI"/>
            <g id="m">
                <use transform="matrix(0.07335390946502056,0,0,0.07335390946502056,0,0)" xlink:href="#aE"/>
                <use transform="matrix(0.07335390946502056,0,0,0.07335390946502056,17.604938271604933,0)"
                     xlink:href="#aA"/>
                <use transform="matrix(0.07335390946502056,0,0,0.07335390946502056,32.27572016460904,0)"
                     xlink:href="#aF"/>
                <use transform="matrix(0.07335390946502056,0,0,0.07335390946502056,46.94650205761315,0)"
                     xlink:href="#aA"/>
                <use transform="matrix(0.07335390946502056,0,0,0.07335390946502056,61.617283950617264,0)"
                     xlink:href="#aB"/>
                <use transform="matrix(0.07335390946502056,0,0,0.07335390946502056,76.28806584362138,0)"
                     xlink:href="#aG"/>
                <use transform="matrix(0.07335390946502056,0,0,0.07335390946502056,82.083024691358,0)"
                     xlink:href="#aH"/>
                <use transform="matrix(0.07335390946502056,0,0,0.07335390946502056,95.2867283950617,0)"
                     xlink:href="#aI"/>
                <use transform="matrix(0.07335390946502056,0,0,0.07335390946502056,102.62211934156376,0)"
                     xlink:href="#aD"/>
            </g>
            <g id="n">
                <use transform="matrix(0.07335390946502056,0,0,0.07335390946502056,0,0)" xlink:href="#aB"/>
                <use transform="matrix(0.07335390946502056,0,0,0.07335390946502056,14.670781893004111,0)"
                     xlink:href="#aA"/>
            </g>
            <path fill="#a9afb8"
                  d="M240 0l2-218c-23 76-54 145-80 218h-23L58-218 59 0H30v-248h44l77 211c21-75 51-140 76-211h43V0h-30"
                  id="aJ"/>
            <path fill="#a9afb8" d="M24 0v-261h32V0H24" id="aK"/>
            <g id="o">
                <use transform="matrix(0.07335390946502056,0,0,0.07335390946502056,0,0)" xlink:href="#aJ"/>
                <use transform="matrix(0.07335390946502056,0,0,0.07335390946502056,21.932818930041147,0)"
                     xlink:href="#aA"/>
                <use transform="matrix(0.07335390946502056,0,0,0.07335390946502056,36.603600823045255,0)"
                     xlink:href="#aK"/>
                <use transform="matrix(0.07335390946502056,0,0,0.07335390946502056,42.39855967078187,0)"
                     xlink:href="#aD"/>
            </g>
            <path fill="#a9afb8"
                  d="M212-179c-10-28-35-45-73-45-59 0-87 40-87 99 0 60 29 101 89 101 43 0 62-24 78-52l27 14C228-24 195 4 139 4 59 4 22-46 18-125c-6-104 99-153 187-111 19 9 31 26 39 46"
                  id="aL"/>
            <path fill="#a9afb8"
                  d="M141-36C126-15 110 5 73 4 37 3 15-17 15-53c-1-64 63-63 125-63 3-35-9-54-41-54-24 1-41 7-42 31l-33-3c5-37 33-52 76-52 45 0 72 20 72 64v82c-1 20 7 32 28 27v20c-31 9-61-2-59-35zM48-53c0 20 12 33 32 33 41-3 63-29 60-74-43 2-92-5-92 41"
                  id="aM"/>
            <g id="p">
                <use transform="matrix(0.07335390946502056,0,0,0.07335390946502056,0,0)" xlink:href="#aL"/>
                <use transform="matrix(0.07335390946502056,0,0,0.07335390946502056,18.998662551440326,0)"
                     xlink:href="#aM"/>
                <use transform="matrix(0.07335390946502056,0,0,0.07335390946502056,33.66944444444444,0)"
                     xlink:href="#aC"/>
                <use transform="matrix(0.07335390946502056,0,0,0.07335390946502056,42.398559670781886,0)"
                     xlink:href="#aB"/>
                <use transform="matrix(0.07335390946502056,0,0,0.07335390946502056,57.069341563786,0)"
                     xlink:href="#aM"/>
                <use transform="matrix(0.07335390946502056,0,0,0.07335390946502056,71.74012345679012,0)"
                     xlink:href="#aF"/>
                <use transform="matrix(0.07335390946502056,0,0,0.07335390946502056,86.41090534979423,0)"
                     xlink:href="#aM"/>
            </g>
            <path fill="#a9afb8" d="M32 76v-337h29V76H32" id="aN"/>
            <use transform="matrix(0.07335390946502056,0,0,0.07335390946502056,0,0)" xlink:href="#aN" id="q"/>
            <path fill="#a9afb8" d="M205 0l-28-72H64L36 0H1l101-248h38L239 0h-34zm-38-99l-47-123c-12 45-31 82-46 123h93"
                  id="aO"/>
            <path fill="#a9afb8"
                  d="M115-194c55 1 70 41 70 98S169 2 115 4C84 4 66-9 55-30l1 105H24l-1-265h31l2 30c10-21 28-34 59-34zm-8 174c40 0 45-34 45-75s-6-73-45-74c-42 0-51 32-51 76 0 43 10 73 51 73"
                  id="aP"/>
            <g id="r">
                <use transform="matrix(0.07335390946502056,0,0,0.07335390946502056,0,0)" xlink:href="#aO"/>
                <use transform="matrix(0.07335390946502056,0,0,0.07335390946502056,17.604938271604933,0)"
                     xlink:href="#aP"/>
                <use transform="matrix(0.07335390946502056,0,0,0.07335390946502056,32.27572016460904,0)"
                     xlink:href="#aC"/>
                <use transform="matrix(0.07335390946502056,0,0,0.07335390946502056,41.00483539094649,0)"
                     xlink:href="#aG"/>
                <use transform="matrix(0.07335390946502056,0,0,0.07335390946502056,46.79979423868312,0)"
                     xlink:href="#aK"/>
            </g>
            <path fill="#a9afb8"
                  d="M110-160c48 1 74 30 74 79 0 53-28 85-80 85-65 0-83-55-86-122-5-90 50-162 133-122 14 7 22 21 27 39l-31 6c-5-40-67-38-82-6-9 19-15 44-15 74 11-20 30-34 60-33zm-7 138c34 0 49-23 49-58s-16-56-50-56c-29 0-50 16-49 49 1 36 15 65 50 65"
                  id="aQ"/>
            <path fill="#a9afb8" d="M68-38c1 34 0 65-14 84H32c9-13 17-26 17-46H33v-38h35" id="aR"/>
            <g id="s">
                <use transform="matrix(0.07335390946502056,0,0,0.07335390946502056,0,0)" xlink:href="#aQ"/>
                <use transform="matrix(0.07335390946502056,0,0,0.07335390946502056,14.670781893004111,0)"
                     xlink:href="#aR"/>
            </g>
            <path fill="#a9afb8"
                  d="M101-251c82-7 93 87 43 132L82-64C71-53 59-42 53-27h129V0H18c2-99 128-94 128-182 0-28-16-43-45-43s-46 15-49 41l-32-3c6-41 34-60 81-64"
                  id="aS"/>
            <path fill="#a9afb8"
                  d="M101-251c68 0 85 55 85 127S166 4 100 4C33 4 14-52 14-124c0-73 17-127 87-127zm-1 229c47 0 54-49 54-102s-4-102-53-102c-51 0-55 48-55 102 0 53 5 102 54 102"
                  id="aT"/>
            <path fill="#a9afb8"
                  d="M126-127c33 6 58 20 58 59 0 88-139 92-164 29-3-8-5-16-6-25l32-3c6 27 21 44 54 44 32 0 52-15 52-46 0-38-36-46-79-43v-28c39 1 72-4 72-42 0-27-17-43-46-43-28 0-47 15-49 41l-32-3c6-42 35-63 81-64 48-1 79 21 79 65 0 36-21 52-52 59"
                  id="aU"/>
            <g id="t">
                <use transform="matrix(0.07335390946502056,0,0,0.07335390946502056,0,0)" xlink:href="#aS"/>
                <use transform="matrix(0.07335390946502056,0,0,0.07335390946502056,14.670781893004111,0)"
                     xlink:href="#aT"/>
                <use transform="matrix(0.07335390946502056,0,0,0.07335390946502056,29.341563786008223,0)"
                     xlink:href="#aS"/>
                <use transform="matrix(0.07335390946502056,0,0,0.07335390946502056,44.012345679012334,0)"
                     xlink:href="#aU"/>
            </g>
            <path fill="#333" d="M24 0v-248h52v208h133V0H24" id="aV"/>
            <path fill="#333"
                  d="M190-63c-7 42-38 67-86 67-59 0-84-38-90-98-12-110 154-137 174-36l-49 2c-2-19-15-32-35-32-30 0-35 28-38 64-6 74 65 87 74 30"
                  id="aW"/>
            <g id="u">
                <use transform="matrix(0.0685185185185185,0,0,0.0685185185185185,0,0)" xlink:href="#aV"/>
                <use transform="matrix(0.0685185185185185,0,0,0.0685185185185185,15.005555555555553,0)"
                     xlink:href="#W"/>
                <use transform="matrix(0.0685185185185185,0,0,0.0685185185185185,30.011111111111106,0)"
                     xlink:href="#aW"/>
                <use transform="matrix(0.0685185185185185,0,0,0.0685185185185185,43.71481481481481,0)" xlink:href="#U"/>
                <use transform="matrix(0.0685185185185185,0,0,0.0685185185185185,57.41851851851851,0)"
                     xlink:href="#aW"/>
                <use transform="matrix(0.0685185185185185,0,0,0.0685185185185185,71.1222222222222,0)" xlink:href="#U"/>
                <use transform="matrix(0.0685185185185185,0,0,0.0685185185185185,84.8259259259259,0)" xlink:href="#W"/>
            </g>
            <path fill="#333"
                  d="M84 4C-5 8 30-112 23-190h32v120c0 31 7 50 39 49 72-2 45-101 50-169h31l1 190h-30c-1-10 1-25-2-33-11 22-28 36-60 37"
                  id="aX"/>
            <g id="v">
                <use transform="matrix(0.0685185185185185,0,0,0.0685185185185185,0,0)" xlink:href="#ai"/>
                <use transform="matrix(0.0685185185185185,0,0,0.0685185185185185,13.7037037037037,0)" xlink:href="#aX"/>
                <use transform="matrix(0.0685185185185185,0,0,0.0685185185185185,27.4074074074074,0)" xlink:href="#Y"/>
                <use transform="matrix(0.0685185185185185,0,0,0.0685185185185185,47.89444444444443,0)"
                     xlink:href="#ab"/>
                <use transform="matrix(0.0685185185185185,0,0,0.0685185185185185,61.598148148148134,0)"
                     xlink:href="#ag"/>
                <use transform="matrix(0.0685185185185185,0,0,0.0685185185185185,69.75185185185184,0)" xlink:href="#Z"/>
            </g>
            <g id="w">
                <use transform="matrix(0.0685185185185185,0,0,0.0685185185185185,0,0)" xlink:href="#ah"/>
                <use transform="matrix(0.0685185185185185,0,0,0.0685185185185185,5.412962962962962,0)"
                     xlink:href="#ai"/>
                <use transform="matrix(0.0685185185185185,0,0,0.0685185185185185,19.116666666666664,0)"
                     xlink:href="#af"/>
            </g>
            <path fill="#333" d="M33 0v-248h34V0H33" id="aY"/>
            <g id="x">
                <use transform="matrix(0.0685185185185185,0,0,0.0685185185185185,0,0)" xlink:href="#aa"/>
                <use transform="matrix(0.0685185185185185,0,0,0.0685185185185185,13.7037037037037,0)" xlink:href="#al"/>
                <use transform="matrix(0.0685185185185185,0,0,0.0685185185185185,27.4074074074074,0)" xlink:href="#af"/>
                <use transform="matrix(0.0685185185185185,0,0,0.0685185185185185,34.25925925925925,0)"
                     xlink:href="#al"/>
                <use transform="matrix(0.0685185185185185,0,0,0.0685185185185185,47.962962962962955,0)"
                     xlink:href="#aY"/>
                <use transform="matrix(0.0685185185185185,0,0,0.0685185185185185,54.8148148148148,0)" xlink:href="#ai"/>
                <use transform="matrix(0.0685185185185185,0,0,0.0685185185185185,68.5185185185185,0)" xlink:href="#ah"/>
                <use transform="matrix(0.0685185185185185,0,0,0.0685185185185185,73.93148148148147,0)"
                     xlink:href="#am"/>
                <use transform="matrix(0.0685185185185185,0,0,0.0685185185185185,86.2648148148148,0)" xlink:href="#ah"/>
                <use transform="matrix(0.0685185185185185,0,0,0.0685185185185185,91.67777777777776,0)" xlink:href="#Z"/>
            </g>
            <g id="y">
                <use transform="matrix(0.0685185185185185,0,0,0.0685185185185185,0,0)" xlink:href="#ao"/>
                <use transform="matrix(0.0685185185185185,0,0,0.0685185185185185,17.746296296296293,0)"
                     xlink:href="#al"/>
                <use transform="matrix(0.0685185185185185,0,0,0.0685185185185185,31.449999999999996,0)"
                     xlink:href="#af"/>
                <use transform="matrix(0.0685185185185185,0,0,0.0685185185185185,38.30185185185184,0)"
                     xlink:href="#al"/>
            </g>
            <path fill="#333" d="M63-220v92h138v28H63V0H30v-248h175v28H63" id="aZ"/>
            <g id="z">
                <use transform="matrix(0.0685185185185185,0,0,0.0685185185185185,0,0)" xlink:href="#aa"/>
                <use transform="matrix(0.0685185185185185,0,0,0.0685185185185185,13.7037037037037,0)" xlink:href="#al"/>
                <use transform="matrix(0.0685185185185185,0,0,0.0685185185185185,27.4074074074074,0)" xlink:href="#af"/>
                <use transform="matrix(0.0685185185185185,0,0,0.0685185185185185,34.25925925925925,0)"
                     xlink:href="#al"/>
                <use transform="matrix(0.0685185185185185,0,0,0.0685185185185185,47.962962962962955,0)"
                     xlink:href="#aZ"/>
                <use transform="matrix(0.0685185185185185,0,0,0.0685185185185185,62.96851851851851,0)"
                     xlink:href="#ah"/>
                <use transform="matrix(0.0685185185185185,0,0,0.0685185185185185,68.38148148148147,0)" xlink:href="#Y"/>
            </g>
            <path fill="#333"
                  d="M135-143c-3-34-86-38-87 0 15 53 115 12 119 90S17 21 10-45l28-5c4 36 97 45 98 0-10-56-113-15-118-90-4-57 82-63 122-42 12 7 21 19 24 35"
                  id="ba"/>
            <g id="A">
                <use transform="matrix(0.0685185185185185,0,0,0.0685185185185185,0,0)" xlink:href="#Y"/>
                <use transform="matrix(0.0685185185185185,0,0,0.0685185185185185,20.487037037037034,0)"
                     xlink:href="#Z"/>
                <use transform="matrix(0.0685185185185185,0,0,0.0685185185185185,34.190740740740736,0)"
                     xlink:href="#af"/>
                <use transform="matrix(0.0685185185185185,0,0,0.0685185185185185,41.042592592592584,0)"
                     xlink:href="#Z"/>
                <use transform="matrix(0.0685185185185185,0,0,0.0685185185185185,54.746296296296286,0)"
                     xlink:href="#ag"/>
                <use transform="matrix(0.0685185185185185,0,0,0.0685185185185185,62.89999999999999,0)"
                     xlink:href="#ah"/>
                <use transform="matrix(0.0685185185185185,0,0,0.0685185185185185,68.31296296296296,0)"
                     xlink:href="#ba"/>
                <use transform="matrix(0.0685185185185185,0,0,0.0685185185185185,80.64629629629628,0)"
                     xlink:href="#af"/>
                <use transform="matrix(0.0685185185185185,0,0,0.0685185185185185,87.49814814814813,0)"
                     xlink:href="#al"/>
            </g>
            <g id="B">
                <use transform="matrix(0.0685185185185185,0,0,0.0685185185185185,0,0)" xlink:href="#ae"/>
                <use transform="matrix(0.0685185185185185,0,0,0.0685185185185185,16.444444444444443,0)"
                     xlink:href="#af"/>
                <use transform="matrix(0.0685185185185185,0,0,0.0685185185185185,23.29629629629629,0)"
                     xlink:href="#ag"/>
                <use transform="matrix(0.0685185185185185,0,0,0.0685185185185185,31.449999999999996,0)"
                     xlink:href="#ah"/>
                <use transform="matrix(0.0685185185185185,0,0,0.0685185185185185,36.86296296296297,0)"
                     xlink:href="#ai"/>
                <use transform="matrix(0.0685185185185185,0,0,0.0685185185185185,50.56666666666666,0)"
                     xlink:href="#aj"/>
            </g>
            <path fill="#333" d="M118-107v75H92v-75H18v-26h74v-75h26v75h74v26h-74" id="bb"/>
            <use transform="matrix(0.0685185185185185,0,0,0.0685185185185185,0,0)" xlink:href="#bb" id="C"/>
            <path fill="#333" d="M108 0H70L1-190h34L89-25l56-165h34" id="bc"/>
            <path fill="#333" d="M87 75C49 33 22-17 22-94c0-76 28-126 65-167h31c-38 41-64 92-64 168S80 34 118 75H87"
                  id="bd"/>
            <path fill="#333" d="M33-261c38 41 65 92 65 168S71 34 33 75H2C39 34 66-17 66-93S39-220 2-261h31" id="be"/>
            <g id="D">
                <use transform="matrix(0.0685185185185185,0,0,0.0685185185185185,0,0)" xlink:href="#bc"/>
                <use transform="matrix(0.0685185185185185,0,0,0.0685185185185185,12.33333333333333,0)"
                     xlink:href="#al"/>
                <use transform="matrix(0.0685185185185185,0,0,0.0685185185185185,26.03703703703703,0)"
                     xlink:href="#ac"/>
                <use transform="matrix(0.0685185185185185,0,0,0.0685185185185185,31.449999999999992,0)"
                     xlink:href="#Z"/>
                <use transform="matrix(0.0685185185185185,0,0,0.0685185185185185,45.15370370370369,0)"
                     xlink:href="#ag"/>
                <use transform="matrix(0.0685185185185185,0,0,0.0685185185185185,53.307407407407396,0)"
                     xlink:href="#bd"/>
                <use transform="matrix(0.0685185185185185,0,0,0.0685185185185185,61.461111111111094,0)"
                     xlink:href="#be"/>
            </g>
            <path fill="#333" d="M25 0v-261h50V0H25" id="bf"/>
            <path fill="#333" d="M25-224v-37h50v37H25zM25 0v-190h50V0H25" id="bg"/>
            <path fill="#333"
                  d="M185-48c-13 30-37 53-82 52C43 2 14-33 14-96s30-98 90-98c62 0 83 45 84 108H66c0 31 8 55 39 56 18 0 30-7 34-22zm-45-69c5-46-57-63-70-21-2 6-4 13-4 21h74"
                  id="bh"/>
            <path fill="#333"
                  d="M135-194c87-1 58 113 63 194h-50c-7-57 23-157-34-157-59 0-34 97-39 157H25l-1-190h47c2 12-1 28 3 38 12-26 28-41 61-42"
                  id="bi"/>
            <path fill="#333" d="M115-3C79 11 28 4 28-45v-112H4v-33h27l15-45h31v45h36v33H77v99c-1 23 16 31 38 25v30"
                  id="bj"/>
            <g id="E">
                <use transform="matrix(0.0685185185185185,0,0,0.0685185185185185,0,0)" xlink:href="#T"/>
                <use transform="matrix(0.0685185185185185,0,0,0.0685185185185185,17.746296296296293,0)"
                     xlink:href="#bf"/>
                <use transform="matrix(0.0685185185185185,0,0,0.0685185185185185,24.598148148148145,0)"
                     xlink:href="#bg"/>
                <use transform="matrix(0.0685185185185185,0,0,0.0685185185185185,31.449999999999996,0)"
                     xlink:href="#bh"/>
                <use transform="matrix(0.0685185185185185,0,0,0.0685185185185185,45.1537037037037,0)" xlink:href="#bi"/>
                <use transform="matrix(0.0685185185185185,0,0,0.0685185185185185,60.15925925925925,0)"
                     xlink:href="#bj"/>
                <use transform="matrix(0.0685185185185185,0,0,0.0685185185185185,68.31296296296296,0)"
                     xlink:href="#bh"/>
            </g>
            <g id="F">
                <use transform="matrix(0.0685185185185185,0,0,0.0685185185185185,0,0)" xlink:href="#ai"/>
                <use transform="matrix(0.0685185185185185,0,0,0.0685185185185185,13.7037037037037,0)" xlink:href="#Z"/>
                <use transform="matrix(0.0685185185185185,0,0,0.0685185185185185,27.4074074074074,0)" xlink:href="#Y"/>
                <use transform="matrix(0.0685185185185185,0,0,0.0685185185185185,47.89444444444443,0)"
                     xlink:href="#ab"/>
            </g>
            <g id="G">
                <use transform="matrix(0.0685185185185185,0,0,0.0685185185185185,0,0)" xlink:href="#am"/>
                <use transform="matrix(0.0685185185185185,0,0,0.0685185185185185,12.33333333333333,0)"
                     xlink:href="#ak"/>
                <use transform="matrix(0.0685185185185185,0,0,0.0685185185185185,26.03703703703703,0)"
                     xlink:href="#ap"/>
            </g>
            <path fill="#333" d="M30 0v-248h33v221h125V0H30" id="bk"/>
            <g id="H">
                <use transform="matrix(0.0685185185185185,0,0,0.0685185185185185,0,0)" xlink:href="#ai"/>
                <use transform="matrix(0.0685185185185185,0,0,0.0685185185185185,13.7037037037037,0)" xlink:href="#Z"/>
                <use transform="matrix(0.0685185185185185,0,0,0.0685185185185185,27.4074074074074,0)" xlink:href="#bc"/>
                <use transform="matrix(0.0685185185185185,0,0,0.0685185185185185,39.74074074074073,0)"
                     xlink:href="#al"/>
                <use transform="matrix(0.0685185185185185,0,0,0.0685185185185185,53.444444444444436,0)"
                     xlink:href="#bk"/>
                <use transform="matrix(0.0685185185185185,0,0,0.0685185185185185,67.14814814814814,0)" xlink:href="#Z"/>
                <use transform="matrix(0.0685185185185185,0,0,0.0685185185185185,80.85185185185183,0)"
                     xlink:href="#am"/>
                <use transform="matrix(0.0685185185185185,0,0,0.0685185185185185,93.18518518518516,0)"
                     xlink:href="#al"/>
                <use transform="matrix(0.0685185185185185,0,0,0.0685185185185185,106.88888888888886,0)"
                     xlink:href="#am"/>
                <use transform="matrix(0.0685185185185185,0,0,0.0685185185185185,119.22222222222219,0)"
                     xlink:href="#al"/>
                <use transform="matrix(0.0685185185185185,0,0,0.0685185185185185,132.9259259259259,0)" xlink:href="#Z"/>
                <use transform="matrix(0.0685185185185185,0,0,0.0685185185185185,146.6296296296296,0)"
                     xlink:href="#bd"/>
                <use transform="matrix(0.0685185185185185,0,0,0.0685185185185185,154.7833333333333,0)"
                     xlink:href="#be"/>
            </g>
            <g id="I">
                <use transform="matrix(0.0685185185185185,0,0,0.0685185185185185,0,0)" xlink:href="#bc"/>
                <use transform="matrix(0.0685185185185185,0,0,0.0685185185185185,12.33333333333333,0)" xlink:href="#Z"/>
                <use transform="matrix(0.0685185185185185,0,0,0.0685185185185185,26.03703703703703,0)"
                     xlink:href="#ah"/>
                <use transform="matrix(0.0685185185185185,0,0,0.0685185185185185,31.449999999999992,0)"
                     xlink:href="#aa"/>
            </g>
            <path fill="#333" d="M27 0v-27h64v-190l-56 39v-29l58-41h29v221h61V0H27" id="bl"/>
            <use transform="matrix(0.061728395061728385,0,0,0.061728395061728385,0,0)" xlink:href="#bl" id="J"/>
            <path fill="#333" d="M33 0v-38h34V0H33" id="bm"/>
            <path fill="#333" d="M80-196l47-18 7 23-49 13 32 44-20 13-27-46-27 45-21-12 33-44-49-13 8-23 47 19-2-53h23"
                  id="bn"/>
            <g id="K">
                <use transform="matrix(0.061728395061728385,0,0,0.061728395061728385,0,0)" xlink:href="#bl"/>
                <use transform="matrix(0.061728395061728385,0,0,0.061728395061728385,12.345679012345677,0)"
                     xlink:href="#bm"/>
                <use transform="matrix(0.061728395061728385,0,0,0.061728395061728385,18.518518518518515,0)"
                     xlink:href="#bm"/>
                <use transform="matrix(0.061728395061728385,0,0,0.061728395061728385,24.691358024691354,0)"
                     xlink:href="#bn"/>
            </g>
            <path fill="#333"
                  d="M24-248c120-7 223 5 221 122C244-46 201 0 124 0H24v-248zM76-40c74 7 117-18 117-86 0-67-45-88-117-82v168"
                  id="bo"/>
            <g id="L">
                <use transform="matrix(0.0685185185185185,0,0,0.0685185185185185,0,0)" xlink:href="#bo"/>
                <use transform="matrix(0.0685185185185185,0,0,0.0685185185185185,17.746296296296293,0)"
                     xlink:href="#U"/>
                <use transform="matrix(0.0685185185185185,0,0,0.0685185185185185,31.449999999999996,0)"
                     xlink:href="#bj"/>
                <use transform="matrix(0.0685185185185185,0,0,0.0685185185185185,39.6037037037037,0)" xlink:href="#U"/>
            </g>
            <g id="M">
                <use transform="matrix(0.0685185185185185,0,0,0.0685185185185185,0,0)" xlink:href="#aa"/>
                <use transform="matrix(0.0685185185185185,0,0,0.0685185185185185,13.7037037037037,0)" xlink:href="#ah"/>
                <use transform="matrix(0.0685185185185185,0,0,0.0685185185185185,19.116666666666664,0)"
                     xlink:href="#al"/>
            </g>
            <g id="N">
                <use transform="matrix(0.0685185185185185,0,0,0.0685185185185185,0,0)" xlink:href="#Y"/>
                <use transform="matrix(0.0685185185185185,0,0,0.0685185185185185,20.487037037037034,0)"
                     xlink:href="#ab"/>
                <use transform="matrix(0.0685185185185185,0,0,0.0685185185185185,34.190740740740736,0)"
                     xlink:href="#ba"/>
            </g>
            <g id="O">
                <use transform="matrix(0.0685185185185185,0,0,0.0685185185185185,0,0)" xlink:href="#al"/>
                <use transform="matrix(0.0685185185185185,0,0,0.0685185185185185,13.7037037037037,0)" xlink:href="#ai"/>
                <use transform="matrix(0.0685185185185185,0,0,0.0685185185185185,27.4074074074074,0)" xlink:href="#Z"/>
            </g>
            <g id="P">
                <use transform="matrix(0.0685185185185185,0,0,0.0685185185185185,0,0)" xlink:href="#ad"/>
                <use transform="matrix(0.0685185185185185,0,0,0.0685185185185185,6.85185185185185,0)" xlink:href="#ah"/>
                <use transform="matrix(0.0685185185185185,0,0,0.0685185185185185,12.264814814814812,0)"
                     xlink:href="#ai"/>
                <use transform="matrix(0.0685185185185185,0,0,0.0685185185185185,25.968518518518515,0)"
                     xlink:href="#af"/>
            </g>
            <g id="Q">
                <use transform="matrix(0.0685185185185185,0,0,0.0685185185185185,0,0)" xlink:href="#ak"/>
                <use transform="matrix(0.0685185185185185,0,0,0.0685185185185185,13.7037037037037,0)" xlink:href="#ab"/>
                <use transform="matrix(0.0685185185185185,0,0,0.0685185185185185,27.4074074074074,0)" xlink:href="#ag"/>
                <use transform="matrix(0.0685185185185185,0,0,0.0685185185185185,35.5611111111111,0)" xlink:href="#ah"/>
                <use transform="matrix(0.0685185185185185,0,0,0.0685185185185185,40.97407407407407,0)" xlink:href="#Z"/>
                <use transform="matrix(0.0685185185185185,0,0,0.0685185185185185,54.67777777777777,0)"
                     xlink:href="#aa"/>
                <use transform="matrix(0.0685185185185185,0,0,0.0685185185185185,68.38148148148147,0)" xlink:href="#Z"/>
                <use transform="matrix(0.0685185185185185,0,0,0.0685185185185185,82.08518518518517,0)"
                     xlink:href="#bd"/>
                <use transform="matrix(0.0685185185185185,0,0,0.0685185185185185,90.23888888888887,0)"
                     xlink:href="#ap"/>
                <use transform="matrix(0.0685185185185185,0,0,0.0685185185185185,97.09074074074071,0)"
                     xlink:href="#ah"/>
                <use transform="matrix(0.0685185185185185,0,0,0.0685185185185185,102.50370370370369,0)"
                     xlink:href="#Y"/>
            </g>
            <g id="R">
                <use transform="matrix(0.0685185185185185,0,0,0.0685185185185185,0,0)" xlink:href="#ao"/>
                <use transform="matrix(0.0685185185185185,0,0,0.0685185185185185,17.746296296296293,0)"
                     xlink:href="#al"/>
                <use transform="matrix(0.0685185185185185,0,0,0.0685185185185185,31.449999999999996,0)"
                     xlink:href="#af"/>
                <use transform="matrix(0.0685185185185185,0,0,0.0685185185185185,38.30185185185184,0)"
                     xlink:href="#al"/>
                <use transform="matrix(0.0685185185185185,0,0,0.0685185185185185,52.005555555555546,0)"
                     xlink:href="#be"/>
            </g>
            <g id="S">
                <use transform="matrix(0.0685185185185185,0,0,0.0685185185185185,0,0)" xlink:href="#ah"/>
                <use transform="matrix(0.0685185185185185,0,0,0.0685185185185185,5.412962962962962,0)"
                     xlink:href="#ai"/>
                <use transform="matrix(0.0685185185185185,0,0,0.0685185185185185,19.116666666666664,0)"
                     xlink:href="#af"/>
            </g>
        </defs>
    </g>
</svg>