<svg xmlns="http://www.w3.org/2000/svg" xmlns:xlink="http://www.w3.org/1999/xlink" xmlns:lucid="lucid" width="1172"
     height="1061">
    <g transform="translate(-300 0)" lucid:page-tab-id="HWEp-vi-RSFO">
        <path d="M0 0h1760v1360H0z" fill="#fff"/>
        <path d="M948.36 240h325v190h-325z" stroke="#333" stroke-width="2" fill="#fff"/>
        <path d="M948.36 285.6h325m-325 57.28h325" stroke="#333" stroke-width="2" fill="none"/>
        <use xlink:href="#a"
             transform="matrix(1,0,0,1,956.3561419539697,248) translate(116.19814814814816 19.933333333333334)"/>
        <use xlink:href="#b" transform="matrix(1,0,0,1,960.3561419539697,293.6) translate(0 25.933333333333334)"/>
        <use xlink:href="#c"
             transform="matrix(1,0,0,1,960.3561419539697,293.6) translate(15.005555555555553 25.933333333333334)"/>
        <use xlink:href="#d"
             transform="matrix(1,0,0,1,960.3561419539697,293.6) translate(124.56666666666663 25.933333333333334)"/>
        <use xlink:href="#e"
             transform="matrix(1,0,0,1,960.3561419539697,293.6) translate(192.9481481481481 25.933333333333334)"/>
        <use xlink:href="#f"
             transform="matrix(1,0,0,1,960.3561419539697,293.6) translate(206.6518518518518 25.933333333333334)"/>
        <use xlink:href="#g"
             transform="matrix(1,0,0,1,960.3561419539697,350.88138435655424) translate(0 25.633333333333333)"/>
        <use xlink:href="#h"
             transform="matrix(1,0,0,1,960.3561419539697,350.88138435655424) translate(21.240740740740737 25.633333333333333)"/>
        <use xlink:href="#e"
             transform="matrix(1,0,0,1,960.3561419539697,350.88138435655424) translate(157.86666666666662 25.633333333333333)"/>
        <use xlink:href="#i"
             transform="matrix(1,0,0,1,960.3561419539697,350.88138435655424) translate(171.5703703703703 25.633333333333333)"/>
        <use xlink:href="#g"
             transform="matrix(1,0,0,1,960.3561419539697,350.88138435655424) translate(0 55.233333333333334)"/>
        <use xlink:href="#j"
             transform="matrix(1,0,0,1,960.3561419539697,350.88138435655424) translate(21.240740740740737 55.233333333333334)"/>
        <use xlink:href="#e"
             transform="matrix(1,0,0,1,960.3561419539697,350.88138435655424) translate(189.31666666666663 55.233333333333334)"/>
        <use xlink:href="#k"
             transform="matrix(1,0,0,1,960.3561419539697,350.88138435655424) translate(203.02037037037033 55.233333333333334)"/>
        <path d="M1110.86 461.75V569" stroke="#333" stroke-width="2" fill="none"/>
        <path d="M1110.86 432.4l14.85 14.86-14.84 15.15-14.85-15.14z" stroke="#333" stroke-width="2" fill="#333"/>
        <path d="M1111.86 570h-2v-1.03h2z" stroke="#333" stroke-width=".05" fill="#333"/>
        <use xlink:href="#l"
             transform="matrix(1,0,0,1,1053.473425904587,535.8714132061345) translate(0 17.77777777777778)"/>
        <use xlink:href="#m"
             transform="matrix(1,0,0,1,1074.5104629416242,458.1812904235225) translate(0 17.77777777777778)"/>
        <path d="M453.15 71.84a8 8 0 0 1 8-8h836.75a8 8 0 0 1 8 8v39.48a8 8 0 0 1-8 8H461.15a8 8 0 0 1-8-8z"
              stroke="#000" stroke-opacity="0" stroke-width="3" fill="#fff" fill-opacity="0"/>
        <use xlink:href="#n"
             transform="matrix(1,0,0,1,457.1465527853429,67.83761197833299) translate(367.83962962962966 32.806666666666665)"/>
        <path d="M453.15 120.16a8 8 0 0 1 8-8h837.7a8 8 0 0 1 8 8V123a8 8 0 0 1-8 8h-837.7a8 8 0 0 1-8-8z" stroke="#000"
              stroke-opacity="0" stroke-width="3" fill="#fff" fill-opacity="0"/>
        <use xlink:href="#o"
             transform="matrix(1,0,0,1,457.1465527853434,116.15522395689881) translate(132.01411522633748 23.805925925925923)"/>
        <use xlink:href="#p"
             transform="matrix(1,0,0,1,457.1465527853434,116.15522395689881) translate(209.69590534979426 23.805925925925923)"/>
        <use xlink:href="#q"
             transform="matrix(1,0,0,1,457.1465527853434,116.15522395689881) translate(334.3241975308642 23.805925925925923)"/>
        <use xlink:href="#r"
             transform="matrix(1,0,0,1,457.1465527853434,116.15522395689881) translate(371.0011522633745 23.805925925925923)"/>
        <use xlink:href="#s"
             transform="matrix(1,0,0,1,457.1465527853434,116.15522395689881) translate(435.40588477366254 23.805925925925923)"/>
        <use xlink:href="#t"
             transform="matrix(1,0,0,1,457.1465527853434,116.15522395689881) translate(551.158353909465 23.805925925925923)"/>
        <use xlink:href="#u"
             transform="matrix(1,0,0,1,457.1465527853434,116.15522395689881) translate(572.6510493827161 23.805925925925923)"/>
        <use xlink:href="#v"
             transform="matrix(1,0,0,1,457.1465527853434,116.15522395689881) translate(632.5811934156378 23.805925925925923)"/>
        <use xlink:href="#w"
             transform="matrix(1,0,0,1,457.1465527853434,116.15522395689881) translate(661.922757201646 23.805925925925923)"/>
        <path d="M948.36 571h325v189h-325z" stroke="#333" stroke-width="2" fill="#fff"/>
        <path d="M948.36 616.6h325m-325 71.78h325" stroke="#333" stroke-width="2" fill="none"/>
        <use xlink:href="#x"
             transform="matrix(1,0,0,1,956.3561419539697,579) translate(118.97314814814816 19.933333333333334)"/>
        <use xlink:href="#b" transform="matrix(1,0,0,1,960.3561419539697,624.6) translate(0 32.93333333333334)"/>
        <use xlink:href="#y"
             transform="matrix(1,0,0,1,960.3561419539697,624.6) translate(15.005555555555553 32.93333333333334)"/>
        <use xlink:href="#e"
             transform="matrix(1,0,0,1,960.3561419539697,624.6) translate(105.31296296296293 32.93333333333334)"/>
        <use xlink:href="#z"
             transform="matrix(1,0,0,1,960.3561419539697,624.6) translate(119.01666666666662 32.93333333333334)"/>
        <path d="M360 363.1h475.42v185H360z" stroke="#333" stroke-width="2" fill="#fff"/>
        <path d="M360 408.7h475.42M360 478.38h475.42" stroke="#333" stroke-width="2" fill="none"/>
        <g>
            <use xlink:href="#A"
                 transform="matrix(1,0,0,1,368,371.09699140312) translate(177.99444444444444 19.933333333333334)"/>
        </g>
        <g>
            <use xlink:href="#b" transform="matrix(1,0,0,1,372,416.69699140312) translate(0 31.933333333333334)"/>
            <use xlink:href="#B"
                 transform="matrix(1,0,0,1,372,416.69699140312) translate(15.005555555555553 31.933333333333334)"/>
            <use xlink:href="#e"
                 transform="matrix(1,0,0,1,372,416.69699140312) translate(40.97407407407407 31.933333333333334)"/>
            <use xlink:href="#z"
                 transform="matrix(1,0,0,1,372,416.69699140312) translate(54.67777777777777 31.933333333333334)"/>
        </g>
        <g>
            <use xlink:href="#C" transform="matrix(1,0,0,1,372,486.38138435655424) translate(0 31.933333333333334)"/>
            <use xlink:href="#D"
                 transform="matrix(1,0,0,1,372,486.38138435655424) translate(21.240740740740737 31.933333333333334)"/>
            <use xlink:href="#E"
                 transform="matrix(1,0,0,1,372,486.38138435655424) translate(184.04074074074066 31.933333333333334)"/>
            <use xlink:href="#F"
                 transform="matrix(1,0,0,1,372,486.38138435655424) translate(197.74444444444435 31.933333333333334)"/>
            <use xlink:href="#E"
                 transform="matrix(1,0,0,1,372,486.38138435655424) translate(238.7185185185184 31.933333333333334)"/>
            <use xlink:href="#G"
                 transform="matrix(1,0,0,1,372,486.38138435655424) translate(252.4222222222221 31.933333333333334)"/>
        </g>
        <path d="M916.6 335H609.7a12 12 0 0 0-12 12v14.1" stroke="#333" stroke-width="2" fill="none"/>
        <path d="M945.94 335l-14.85 14.85L915.93 335l15.15-14.85z" stroke="#333" stroke-width="2" fill="#333"/>
        <path d="M598.7 362.1h-2v-1.03h2z" stroke="#333" stroke-width=".05" fill="#333"/>
        <g>
            <use xlink:href="#H"
                 transform="matrix(1,0,0,1,579.5998142579342,304.3333333333333) translate(0 17.77777777777778)"/>
        </g>
        <g>
            <use xlink:href="#m"
                 transform="matrix(1,0,0,1,891.4105479479733,304.3333333333333) translate(0 17.77777777777778)"/>
        </g>
        <path d="M435.2 649.26h325v240h-325z" stroke="#333" stroke-width="2" fill="#fff"/>
        <path d="M435.2 694.86h325m-325 126.98h325" stroke="#333" stroke-width="2" fill="none"/>
        <g>
            <use xlink:href="#I"
                 transform="matrix(1,0,0,1,443.2122839079393,657.2574066887173) translate(111.3675925925926 19.933333333333334)"/>
        </g>
        <g>
            <use xlink:href="#J"
                 transform="matrix(1,0,0,1,447.2122839079393,702.8574066887173) translate(0 30.83333333333334)"/>
            <use xlink:href="#K"
                 transform="matrix(1,0,0,1,447.2122839079393,702.8574066887173) translate(15.005555555555553 30.83333333333334)"/>
            <use xlink:href="#E"
                 transform="matrix(1,0,0,1,447.2122839079393,702.8574066887173) translate(83.45555555555555 30.83333333333334)"/>
            <use xlink:href="#L"
                 transform="matrix(1,0,0,1,447.2122839079393,702.8574066887173) translate(97.15925925925924 30.83333333333334)"/>
            <use xlink:href="#J"
                 transform="matrix(1,0,0,1,447.2122839079393,702.8574066887173) translate(0 60.43333333333334)"/>
            <use xlink:href="#M"
                 transform="matrix(1,0,0,1,447.2122839079393,702.8574066887173) translate(15.005555555555553 60.43333333333334)"/>
            <use xlink:href="#E"
                 transform="matrix(1,0,0,1,447.2122839079393,702.8574066887173) translate(84.8259259259259 60.43333333333334)"/>
            <use xlink:href="#N"
                 transform="matrix(1,0,0,1,447.2122839079393,702.8574066887173) translate(98.5296296296296 60.43333333333334)"/>
            <use xlink:href="#J"
                 transform="matrix(1,0,0,1,447.2122839079393,702.8574066887173) translate(0 90.03333333333333)"/>
            <use xlink:href="#O"
                 transform="matrix(1,0,0,1,447.2122839079393,702.8574066887173) translate(15.005555555555553 90.03333333333333)"/>
            <use xlink:href="#E"
                 transform="matrix(1,0,0,1,447.2122839079393,702.8574066887173) translate(90.23888888888888 90.03333333333333)"/>
            <use xlink:href="#P"
                 transform="matrix(1,0,0,1,447.2122839079393,702.8574066887173) translate(103.94259259259258 90.03333333333333)"/>
        </g>
        <g>
            <use xlink:href="#g"
                 transform="matrix(1,0,0,1,447.2122839079393,829.8387910452716) translate(0 30.933333333333334)"/>
            <use xlink:href="#Q"
                 transform="matrix(1,0,0,1,447.2122839079393,829.8387910452716) translate(21.240740740740737 30.933333333333334)"/>
            <use xlink:href="#e"
                 transform="matrix(1,0,0,1,447.2122839079393,829.8387910452716) translate(189.45370370370367 30.933333333333334)"/>
            <use xlink:href="#z"
                 transform="matrix(1,0,0,1,447.2122839079393,829.8387910452716) translate(203.15740740740736 30.933333333333334)"/>
        </g>
        <path d="M597.7 647.26v-10.7m0-10.7v-21.42m0-10.7v-21.4m0-10.72v-10.7" stroke="#333" stroke-width="2"
              fill="none"/>
        <path d="M598.7 648.26h-2v-1.03h2z" stroke="#333" stroke-width=".05" fill="#333"/>
        <path d="M607.9 568.28l-10.2-17.22-10.17 17.22" stroke="#333" stroke-width="2" fill="none"/>
        <defs>
            <path fill="#333"
                  d="M24-248c93 1 206-16 204 79-1 75-69 88-152 82V0H24v-248zm52 121c47 0 100 7 100-41 0-47-54-39-100-39v80"
                  id="R"/>
            <path fill="#333" d="M135-150c-39-12-60 13-60 57V0H25l-1-190h47c2 13-1 29 3 40 6-28 27-53 61-41v41" id="S"/>
            <path fill="#333"
                  d="M185-48c-13 30-37 53-82 52C43 2 14-33 14-96s30-98 90-98c62 0 83 45 84 108H66c0 31 8 55 39 56 18 0 30-7 34-22zm-45-69c5-46-57-63-70-21-2 6-4 13-4 21h74"
                  id="T"/>
            <path fill="#333"
                  d="M88-194c31-1 46 15 58 34l-1-101h50l1 261h-48c-2-10 0-23-3-31C134-8 116 4 84 4 32 4 16-41 15-95c0-56 19-97 73-99zm17 164c33 0 40-30 41-66 1-37-9-64-41-64s-38 30-39 65c0 43 13 65 39 65"
                  id="U"/>
            <path fill="#333" d="M25-224v-37h50v37H25zM25 0v-190h50V0H25" id="V"/>
            <path fill="#333"
                  d="M110-194c64 0 96 36 96 99 0 64-35 99-97 99-61 0-95-36-95-99 0-62 34-99 96-99zm-1 164c35 0 45-28 45-65 0-40-10-65-43-65-34 0-45 26-45 65 0 36 10 65 43 65"
                  id="W"/>
            <g id="a">
                <use transform="matrix(0.0685185185185185,0,0,0.0685185185185185,0,0)" xlink:href="#R"/>
                <use transform="matrix(0.0685185185185185,0,0,0.0685185185185185,16.444444444444443,0)"
                     xlink:href="#S"/>
                <use transform="matrix(0.0685185185185185,0,0,0.0685185185185185,26.037037037037038,0)"
                     xlink:href="#T"/>
                <use transform="matrix(0.0685185185185185,0,0,0.0685185185185185,39.74074074074073,0)" xlink:href="#U"/>
                <use transform="matrix(0.0685185185185185,0,0,0.0685185185185185,54.746296296296286,0)"
                     xlink:href="#V"/>
                <use transform="matrix(0.0685185185185185,0,0,0.0685185185185185,61.598148148148134,0)"
                     xlink:href="#W"/>
            </g>
            <path fill="#333" d="M16-82v-28h88v28H16" id="X"/>
            <use transform="matrix(0.0685185185185185,0,0,0.0685185185185185,0,0)" xlink:href="#X" id="b"/>
            <path fill="#333"
                  d="M100-194c63 0 86 42 84 106H49c0 40 14 67 53 68 26 1 43-12 49-29l28 8c-11 28-37 45-77 45C44 4 14-33 15-96c1-61 26-98 85-98zm52 81c6-60-76-77-97-28-3 7-6 17-6 28h103"
                  id="Y"/>
            <path fill="#333"
                  d="M117-194c89-4 53 116 60 194h-32v-121c0-31-8-49-39-48C34-167 62-67 57 0H25l-1-190h30c1 10-1 24 2 32 11-22 29-35 61-36"
                  id="Z"/>
            <path fill="#333"
                  d="M85-194c31 0 48 13 60 33l-1-100h32l1 261h-30c-2-10 0-23-3-31C134-8 116 4 85 4 32 4 16-35 15-94c0-66 23-100 70-100zm9 24c-40 0-46 34-46 75 0 40 6 74 45 74 42 0 51-32 51-76 0-42-9-74-50-73"
                  id="aa"/>
            <path fill="#333" d="M114-163C36-179 61-72 57 0H25l-1-190h30c1 12-1 29 2 39 6-27 23-49 58-41v29" id="ab"/>
            <path fill="#333"
                  d="M96-169c-40 0-48 33-48 73s9 75 48 75c24 0 41-14 43-38l32 2c-6 37-31 61-74 61-59 0-76-41-82-99-10-93 101-131 147-64 4 7 5 14 7 22l-32 3c-4-21-16-35-41-35zm3 187c19-1 33 8 33 26 0 31-30 33-64 32V58c18 2 39 4 41-13 1-15-18-13-34-13L87 0h19"
                  id="ac"/>
            <path fill="#333"
                  d="M100-194c62-1 85 37 85 99 1 63-27 99-86 99S16-35 15-95c0-66 28-99 85-99zM99-20c44 1 53-31 53-75 0-43-8-75-51-75s-53 32-53 75 10 74 51 75"
                  id="ad"/>
            <g id="c">
                <use transform="matrix(0.0685185185185185,0,0,0.0685185185185185,0,0)" xlink:href="#Y"/>
                <use transform="matrix(0.0685185185185185,0,0,0.0685185185185185,13.7037037037037,0)" xlink:href="#Z"/>
                <use transform="matrix(0.0685185185185185,0,0,0.0685185185185185,27.4074074074074,0)" xlink:href="#aa"/>
                <use transform="matrix(0.0685185185185185,0,0,0.0685185185185185,41.11111111111111,0)" xlink:href="#Y"/>
                <use transform="matrix(0.0685185185185185,0,0,0.0685185185185185,54.8148148148148,0)" xlink:href="#ab"/>
                <use transform="matrix(0.0685185185185185,0,0,0.0685185185185185,62.96851851851851,0)" xlink:href="#Y"/>
                <use transform="matrix(0.0685185185185185,0,0,0.0685185185185185,76.6722222222222,0)" xlink:href="#ac"/>
                <use transform="matrix(0.0685185185185185,0,0,0.0685185185185185,89.00555555555552,0)"
                     xlink:href="#ad"/>
            </g>
            <path fill="#333"
                  d="M39-94c74 12-11 154 75 146v23c-44 4-70-10-70-52C44-23 55-84 6-82v-22c81 4-7-162 84-157h24v23c-82-15-2 131-75 144"
                  id="ae"/>
            <path fill="#333" d="M101-234c-31-9-42 10-38 44h38v23H63V0H32v-167H5v-23h27c-7-52 17-82 69-68v24" id="af"/>
            <path fill="#333" d="M24-231v-30h32v30H24zM24 0v-190h32V0H24" id="ag"/>
            <path fill="#333"
                  d="M141-36C126-15 110 5 73 4 37 3 15-17 15-53c-1-64 63-63 125-63 3-35-9-54-41-54-24 1-41 7-42 31l-33-3c5-37 33-52 76-52 45 0 72 20 72 64v82c-1 20 7 32 28 27v20c-31 9-61-2-59-35zM48-53c0 20 12 33 32 33 41-3 63-29 60-74-43 2-92-5-92 41"
                  id="ah"/>
            <path fill="#333" d="M24 0v-261h32V0H24" id="ai"/>
            <path fill="#333"
                  d="M76-40C78 24 84 88 6 75V52C86 64 9-79 80-94c-40-6-34-59-34-106 1-29-11-41-40-38v-23c44-4 70 10 70 52 0 47-12 108 38 105v22c-26 1-39 14-38 42"
                  id="aj"/>
            <g id="d">
                <use transform="matrix(0.0685185185185185,0,0,0.0685185185185185,0,0)" xlink:href="#ae"/>
                <use transform="matrix(0.0685185185185185,0,0,0.0685185185185185,8.222222222222221,0)"
                     xlink:href="#af"/>
                <use transform="matrix(0.0685185185185185,0,0,0.0685185185185185,15.074074074074073,0)"
                     xlink:href="#ag"/>
                <use transform="matrix(0.0685185185185185,0,0,0.0685185185185185,20.487037037037034,0)"
                     xlink:href="#Z"/>
                <use transform="matrix(0.0685185185185185,0,0,0.0685185185185185,34.190740740740736,0)"
                     xlink:href="#ah"/>
                <use transform="matrix(0.0685185185185185,0,0,0.0685185185185185,47.89444444444444,0)"
                     xlink:href="#ai"/>
                <use transform="matrix(0.0685185185185185,0,0,0.0685185185185185,53.3074074074074,0)" xlink:href="#aj"/>
            </g>
            <path fill="#333" d="M33-154v-36h34v36H33zM33 0v-36h34V0H33" id="ak"/>
            <use transform="matrix(0.0685185185185185,0,0,0.0685185185185185,0,0)" xlink:href="#ak" id="e"/>
            <path fill="#333"
                  d="M185-189c-5-48-123-54-124 2 14 75 158 14 163 119 3 78-121 87-175 55-17-10-28-26-33-46l33-7c5 56 141 63 141-1 0-78-155-14-162-118-5-82 145-84 179-34 5 7 8 16 11 25"
                  id="al"/>
            <path fill="#333" d="M59-47c-2 24 18 29 38 22v24C64 9 27 4 27-40v-127H5v-23h24l9-43h21v43h35v23H59v120"
                  id="am"/>
            <path fill="#333"
                  d="M177-190C167-65 218 103 67 71c-23-6-38-20-44-43l32-5c15 47 100 32 89-28v-30C133-14 115 1 83 1 29 1 15-40 15-95c0-56 16-97 71-98 29-1 48 16 59 35 1-10 0-23 2-32h30zM94-22c36 0 50-32 50-73 0-42-14-75-50-75-39 0-46 34-46 75s6 73 46 73"
                  id="an"/>
            <g id="f">
                <use transform="matrix(0.0685185185185185,0,0,0.0685185185185185,0,0)" xlink:href="#al"/>
                <use transform="matrix(0.0685185185185185,0,0,0.0685185185185185,16.444444444444443,0)"
                     xlink:href="#am"/>
                <use transform="matrix(0.0685185185185185,0,0,0.0685185185185185,23.29629629629629,0)"
                     xlink:href="#ab"/>
                <use transform="matrix(0.0685185185185185,0,0,0.0685185185185185,31.449999999999996,0)"
                     xlink:href="#ag"/>
                <use transform="matrix(0.0685185185185185,0,0,0.0685185185185185,36.86296296296297,0)" xlink:href="#Z"/>
                <use transform="matrix(0.0685185185185185,0,0,0.0685185185185185,50.56666666666666,0)"
                     xlink:href="#an"/>
            </g>
            <path fill="#333" d="M118-107v75H92v-75H18v-26h74v-75h26v75h74v26h-74" id="ao"/>
            <use transform="matrix(0.0685185185185185,0,0,0.0685185185185185,0,0)" xlink:href="#ao" id="g"/>
            <path fill="#333"
                  d="M96-169c-40 0-48 33-48 73s9 75 48 75c24 0 41-14 43-38l32 2c-6 37-31 61-74 61-59 0-76-41-82-99-10-93 101-131 147-64 4 7 5 14 7 22l-32 3c-4-21-16-35-41-35"
                  id="ap"/>
            <path fill="#333" d="M205 0l-28-72H64L36 0H1l101-248h38L239 0h-34zm-38-99l-47-123c-12 45-31 82-46 123h93"
                  id="aq"/>
            <path fill="#333" d="M87 75C49 33 22-17 22-94c0-76 28-126 65-167h31c-38 41-64 92-64 168S80 34 118 75H87"
                  id="ar"/>
            <path fill="#333" d="M33-261c38 41 65 92 65 168S71 34 33 75H2C39 34 66-17 66-93S39-220 2-261h31" id="as"/>
            <g id="h">
                <use transform="matrix(0.0685185185185185,0,0,0.0685185185185185,0,0)" xlink:href="#ap"/>
                <use transform="matrix(0.0685185185185185,0,0,0.0685185185185185,12.33333333333333,0)"
                     xlink:href="#ab"/>
                <use transform="matrix(0.0685185185185185,0,0,0.0685185185185185,20.487037037037034,0)"
                     xlink:href="#ag"/>
                <use transform="matrix(0.0685185185185185,0,0,0.0685185185185185,25.899999999999995,0)"
                     xlink:href="#ah"/>
                <use transform="matrix(0.0685185185185185,0,0,0.0685185185185185,39.603703703703694,0)"
                     xlink:href="#ab"/>
                <use transform="matrix(0.0685185185185185,0,0,0.0685185185185185,47.7574074074074,0)" xlink:href="#aq"/>
                <use transform="matrix(0.0685185185185185,0,0,0.0685185185185185,64.20185185185184,0)" xlink:href="#Z"/>
                <use transform="matrix(0.0685185185185185,0,0,0.0685185185185185,77.90555555555554,0)"
                     xlink:href="#aa"/>
                <use transform="matrix(0.0685185185185185,0,0,0.0685185185185185,91.60925925925923,0)"
                     xlink:href="#ah"/>
                <use transform="matrix(0.0685185185185185,0,0,0.0685185185185185,105.31296296296293,0)"
                     xlink:href="#ab"/>
                <use transform="matrix(0.0685185185185185,0,0,0.0685185185185185,113.46666666666663,0)"
                     xlink:href="#ar"/>
                <use transform="matrix(0.0685185185185185,0,0,0.0685185185185185,121.62037037037032,0)"
                     xlink:href="#as"/>
            </g>
            <path fill="#333" d="M108 0H70L1-190h34L89-25l56-165h34" id="at"/>
            <g id="i">
                <use transform="matrix(0.0685185185185185,0,0,0.0685185185185185,0,0)" xlink:href="#at"/>
                <use transform="matrix(0.0685185185185185,0,0,0.0685185185185185,12.33333333333333,0)"
                     xlink:href="#ad"/>
                <use transform="matrix(0.0685185185185185,0,0,0.0685185185185185,26.03703703703703,0)"
                     xlink:href="#ag"/>
                <use transform="matrix(0.0685185185185185,0,0,0.0685185185185185,31.449999999999992,0)"
                     xlink:href="#aa"/>
            </g>
            <path fill="#333" d="M30 0v-248h187v28H63v79h144v27H63v87h162V0H30" id="au"/>
            <g id="j">
                <use transform="matrix(0.0685185185185185,0,0,0.0685185185185185,0,0)" xlink:href="#ap"/>
                <use transform="matrix(0.0685185185185185,0,0,0.0685185185185185,12.33333333333333,0)"
                     xlink:href="#ab"/>
                <use transform="matrix(0.0685185185185185,0,0,0.0685185185185185,20.487037037037034,0)"
                     xlink:href="#ag"/>
                <use transform="matrix(0.0685185185185185,0,0,0.0685185185185185,25.899999999999995,0)"
                     xlink:href="#ah"/>
                <use transform="matrix(0.0685185185185185,0,0,0.0685185185185185,39.603703703703694,0)"
                     xlink:href="#ab"/>
                <use transform="matrix(0.0685185185185185,0,0,0.0685185185185185,47.7574074074074,0)" xlink:href="#au"/>
                <use transform="matrix(0.0685185185185185,0,0,0.0685185185185185,64.20185185185184,0)"
                     xlink:href="#ai"/>
                <use transform="matrix(0.0685185185185185,0,0,0.0685185185185185,69.6148148148148,0)" xlink:href="#Y"/>
                <use transform="matrix(0.0685185185185185,0,0,0.0685185185185185,83.3185185185185,0)" xlink:href="#at"/>
                <use transform="matrix(0.0685185185185185,0,0,0.0685185185185185,95.65185185185183,0)"
                     xlink:href="#ah"/>
                <use transform="matrix(0.0685185185185185,0,0,0.0685185185185185,109.35555555555553,0)"
                     xlink:href="#aa"/>
                <use transform="matrix(0.0685185185185185,0,0,0.0685185185185185,123.05925925925922,0)"
                     xlink:href="#ad"/>
                <use transform="matrix(0.0685185185185185,0,0,0.0685185185185185,136.76296296296292,0)"
                     xlink:href="#ab"/>
                <use transform="matrix(0.0685185185185185,0,0,0.0685185185185185,144.91666666666663,0)"
                     xlink:href="#ar"/>
                <use transform="matrix(0.0685185185185185,0,0,0.0685185185185185,153.07037037037034,0)"
                     xlink:href="#as"/>
            </g>
            <g id="k">
                <use transform="matrix(0.0685185185185185,0,0,0.0685185185185185,0,0)" xlink:href="#at"/>
                <use transform="matrix(0.0685185185185185,0,0,0.0685185185185185,12.33333333333333,0)"
                     xlink:href="#ad"/>
                <use transform="matrix(0.0685185185185185,0,0,0.0685185185185185,26.03703703703703,0)"
                     xlink:href="#ag"/>
                <use transform="matrix(0.0685185185185185,0,0,0.0685185185185185,31.449999999999992,0)"
                     xlink:href="#aa"/>
            </g>
            <path fill="#333"
                  d="M54-142c48-35 137-8 131 61C196 18 31 33 14-55l32-4c7 23 22 37 52 37 35-1 51-22 54-58 4-55-73-65-99-34H22l8-134h141v27H59"
                  id="av"/>
            <path fill="#333" d="M33 0v-38h34V0H33" id="aw"/>
            <path fill="#333"
                  d="M101-251c82-7 93 87 43 132L82-64C71-53 59-42 53-27h129V0H18c2-99 128-94 128-182 0-28-16-43-45-43s-46 15-49 41l-32-3c6-41 34-60 81-64"
                  id="ax"/>
            <path fill="#333"
                  d="M101-251c68 0 85 55 85 127S166 4 100 4C33 4 14-52 14-124c0-73 17-127 87-127zm-1 229c47 0 54-49 54-102s-4-102-53-102c-51 0-55 48-55 102 0 53 5 102 54 102"
                  id="ay"/>
            <g id="l">
                <use transform="matrix(0.06172839506172839,0,0,0.06172839506172839,0,0)" xlink:href="#av"/>
                <use transform="matrix(0.06172839506172839,0,0,0.06172839506172839,12.345679012345679,0)"
                     xlink:href="#aw"/>
                <use transform="matrix(0.06172839506172839,0,0,0.06172839506172839,18.51851851851852,0)"
                     xlink:href="#aw"/>
                <use transform="matrix(0.06172839506172839,0,0,0.06172839506172839,24.691358024691358,0)"
                     xlink:href="#ax"/>
                <use transform="matrix(0.06172839506172839,0,0,0.06172839506172839,37.03703703703704,0)"
                     xlink:href="#ay"/>
            </g>
            <path fill="#333" d="M27 0v-27h64v-190l-56 39v-29l58-41h29v221h61V0H27" id="az"/>
            <use transform="matrix(0.06172839506172839,0,0,0.06172839506172839,0,0)" xlink:href="#az" id="m"/>
            <path fill="#a9afb8"
                  d="M24-248c93 1 206-16 204 79-1 75-69 88-152 82V0H24v-248zm52 121c47 0 100 7 100-41 0-47-54-39-100-39v80"
                  id="aA"/>
            <path fill="#a9afb8" d="M135-150c-39-12-60 13-60 57V0H25l-1-190h47c2 13-1 29 3 40 6-28 27-53 61-41v41"
                  id="aB"/>
            <path fill="#a9afb8"
                  d="M185-48c-13 30-37 53-82 52C43 2 14-33 14-96s30-98 90-98c62 0 83 45 84 108H66c0 31 8 55 39 56 18 0 30-7 34-22zm-45-69c5-46-57-63-70-21-2 6-4 13-4 21h74zm-67-91v-5l45-51h45v8l-60 48H73"
                  id="aC"/>
            <path fill="#a9afb8"
                  d="M88-194c31-1 46 15 58 34l-1-101h50l1 261h-48c-2-10 0-23-3-31C134-8 116 4 84 4 32 4 16-41 15-95c0-56 19-97 73-99zm17 164c33 0 40-30 41-66 1-37-9-64-41-64s-38 30-39 65c0 43 13 65 39 65"
                  id="aD"/>
            <path fill="#a9afb8" d="M25-224v-37h50v37H25zM25 0v-190h50V0H25" id="aE"/>
            <path fill="#a9afb8"
                  d="M110-194c64 0 96 36 96 99 0 64-35 99-97 99-61 0-95-36-95-99 0-62 34-99 96-99zm-1 164c35 0 45-28 45-65 0-40-10-65-43-65-34 0-45 26-45 65 0 36 10 65 43 65"
                  id="aF"/>
            <g id="n">
                <use transform="matrix(0.10370370370370367,0,0,0.10370370370370367,0,0)" xlink:href="#aA"/>
                <use transform="matrix(0.10370370370370367,0,0,0.10370370370370367,24.888888888888882,0)"
                     xlink:href="#aB"/>
                <use transform="matrix(0.10370370370370367,0,0,0.10370370370370367,39.4074074074074,0)"
                     xlink:href="#aC"/>
                <use transform="matrix(0.10370370370370367,0,0,0.10370370370370367,60.14814814814813,0)"
                     xlink:href="#aD"/>
                <use transform="matrix(0.10370370370370367,0,0,0.10370370370370367,82.85925925925923,0)"
                     xlink:href="#aE"/>
                <use transform="matrix(0.10370370370370367,0,0,0.10370370370370367,93.2296296296296,0)"
                     xlink:href="#aF"/>
            </g>
            <path fill="#a9afb8"
                  d="M30-248c87 1 191-15 191 75 0 78-77 80-158 76V0H30v-248zm33 125c57 0 124 11 124-50 0-59-68-47-124-48v98"
                  id="aG"/>
            <path fill="#a9afb8"
                  d="M100-194c63 0 86 42 84 106H49c0 40 14 67 53 68 26 1 43-12 49-29l28 8c-11 28-37 45-77 45C44 4 14-33 15-96c1-61 26-98 85-98zm52 81c6-60-76-77-97-28-3 7-6 17-6 28h103"
                  id="aH"/>
            <path fill="#a9afb8"
                  d="M85-194c31 0 48 13 60 33l-1-100h32l1 261h-30c-2-10 0-23-3-31C134-8 116 4 85 4 32 4 16-35 15-94c0-66 23-100 70-100zm9 24c-40 0-46 34-46 75 0 40 6 74 45 74 42 0 51-32 51-76 0-42-9-74-50-73"
                  id="aI"/>
            <path fill="#a9afb8" d="M114-163C36-179 61-72 57 0H25l-1-190h30c1 12-1 29 2 39 6-27 23-49 58-41v29"
                  id="aJ"/>
            <path fill="#a9afb8"
                  d="M100-194c62-1 85 37 85 99 1 63-27 99-86 99S16-35 15-95c0-66 28-99 85-99zM99-20c44 1 53-31 53-75 0-43-8-75-51-75s-53 32-53 75 10 74 51 75"
                  id="aK"/>
            <g id="o">
                <use transform="matrix(0.07335390946502056,0,0,0.07335390946502056,0,0)" xlink:href="#aG"/>
                <use transform="matrix(0.07335390946502056,0,0,0.07335390946502056,17.604938271604933,0)"
                     xlink:href="#aH"/>
                <use transform="matrix(0.07335390946502056,0,0,0.07335390946502056,32.27572016460904,0)"
                     xlink:href="#aI"/>
                <use transform="matrix(0.07335390946502056,0,0,0.07335390946502056,46.94650205761315,0)"
                     xlink:href="#aJ"/>
                <use transform="matrix(0.07335390946502056,0,0,0.07335390946502056,55.6756172839506,0)"
                     xlink:href="#aK"/>
            </g>
            <path fill="#a9afb8"
                  d="M160-131c35 5 61 23 61 61C221 17 115-2 30 0v-248c76 3 177-17 177 60 0 33-19 50-47 57zm-97-11c50-1 110 9 110-42 0-47-63-36-110-37v79zm0 115c55-2 124 14 124-45 0-56-70-42-124-44v89"
                  id="aL"/>
            <path fill="#a9afb8"
                  d="M117-194c89-4 53 116 60 194h-32v-121c0-31-8-49-39-48C34-167 62-67 57 0H25l-1-190h30c1 10-1 24 2 32 11-22 29-35 61-36"
                  id="aM"/>
            <path fill="#a9afb8" d="M24-231v-30h32v30H24zM24 0v-190h32V0H24" id="aN"/>
            <path fill="#a9afb8"
                  d="M96-169c-40 0-48 33-48 73s9 75 48 75c24 0 41-14 43-38l32 2c-6 37-31 61-74 61-59 0-76-41-82-99-10-93 101-131 147-64 4 7 5 14 7 22l-32 3c-4-21-16-35-41-35"
                  id="aO"/>
            <path fill="#a9afb8" d="M59-47c-2 24 18 29 38 22v24C64 9 27 4 27-40v-127H5v-23h24l9-43h21v43h35v23H59v120"
                  id="aP"/>
            <g id="p">
                <use transform="matrix(0.07335390946502056,0,0,0.07335390946502056,0,0)" xlink:href="#aL"/>
                <use transform="matrix(0.07335390946502056,0,0,0.07335390946502056,17.604938271604933,0)"
                     xlink:href="#aH"/>
                <use transform="matrix(0.07335390946502056,0,0,0.07335390946502056,32.27572016460904,0)"
                     xlink:href="#aM"/>
                <use transform="matrix(0.07335390946502056,0,0,0.07335390946502056,46.94650205761315,0)"
                     xlink:href="#aH"/>
                <use transform="matrix(0.07335390946502056,0,0,0.07335390946502056,61.617283950617264,0)"
                     xlink:href="#aI"/>
                <use transform="matrix(0.07335390946502056,0,0,0.07335390946502056,76.28806584362138,0)"
                     xlink:href="#aN"/>
                <use transform="matrix(0.07335390946502056,0,0,0.07335390946502056,82.083024691358,0)"
                     xlink:href="#aO"/>
                <use transform="matrix(0.07335390946502056,0,0,0.07335390946502056,95.2867283950617,0)"
                     xlink:href="#aP"/>
                <use transform="matrix(0.07335390946502056,0,0,0.07335390946502056,102.62211934156376,0)"
                     xlink:href="#aK"/>
            </g>
            <g id="q">
                <use transform="matrix(0.07335390946502056,0,0,0.07335390946502056,0,0)" xlink:href="#aI"/>
                <use transform="matrix(0.07335390946502056,0,0,0.07335390946502056,14.670781893004111,0)"
                     xlink:href="#aH"/>
            </g>
            <path fill="#a9afb8"
                  d="M240 0l2-218c-23 76-54 145-80 218h-23L58-218 59 0H30v-248h44l77 211c21-75 51-140 76-211h43V0h-30"
                  id="aQ"/>
            <path fill="#a9afb8" d="M24 0v-261h32V0H24" id="aR"/>
            <g id="r">
                <use transform="matrix(0.07335390946502056,0,0,0.07335390946502056,0,0)" xlink:href="#aQ"/>
                <use transform="matrix(0.07335390946502056,0,0,0.07335390946502056,21.932818930041147,0)"
                     xlink:href="#aH"/>
                <use transform="matrix(0.07335390946502056,0,0,0.07335390946502056,36.603600823045255,0)"
                     xlink:href="#aR"/>
                <use transform="matrix(0.07335390946502056,0,0,0.07335390946502056,42.39855967078187,0)"
                     xlink:href="#aK"/>
            </g>
            <path fill="#a9afb8"
                  d="M212-179c-10-28-35-45-73-45-59 0-87 40-87 99 0 60 29 101 89 101 43 0 62-24 78-52l27 14C228-24 195 4 139 4 59 4 22-46 18-125c-6-104 99-153 187-111 19 9 31 26 39 46"
                  id="aS"/>
            <path fill="#a9afb8"
                  d="M141-36C126-15 110 5 73 4 37 3 15-17 15-53c-1-64 63-63 125-63 3-35-9-54-41-54-24 1-41 7-42 31l-33-3c5-37 33-52 76-52 45 0 72 20 72 64v82c-1 20 7 32 28 27v20c-31 9-61-2-59-35zM48-53c0 20 12 33 32 33 41-3 63-29 60-74-43 2-92-5-92 41"
                  id="aT"/>
            <g id="s">
                <use transform="matrix(0.07335390946502056,0,0,0.07335390946502056,0,0)" xlink:href="#aS"/>
                <use transform="matrix(0.07335390946502056,0,0,0.07335390946502056,18.998662551440326,0)"
                     xlink:href="#aT"/>
                <use transform="matrix(0.07335390946502056,0,0,0.07335390946502056,33.66944444444444,0)"
                     xlink:href="#aJ"/>
                <use transform="matrix(0.07335390946502056,0,0,0.07335390946502056,42.398559670781886,0)"
                     xlink:href="#aI"/>
                <use transform="matrix(0.07335390946502056,0,0,0.07335390946502056,57.069341563786,0)"
                     xlink:href="#aT"/>
                <use transform="matrix(0.07335390946502056,0,0,0.07335390946502056,71.74012345679012,0)"
                     xlink:href="#aM"/>
                <use transform="matrix(0.07335390946502056,0,0,0.07335390946502056,86.41090534979423,0)"
                     xlink:href="#aT"/>
            </g>
            <path fill="#a9afb8" d="M32 76v-337h29V76H32" id="aU"/>
            <use transform="matrix(0.07335390946502056,0,0,0.07335390946502056,0,0)" xlink:href="#aU" id="t"/>
            <path fill="#a9afb8" d="M205 0l-28-72H64L36 0H1l101-248h38L239 0h-34zm-38-99l-47-123c-12 45-31 82-46 123h93"
                  id="aV"/>
            <path fill="#a9afb8"
                  d="M115-194c55 1 70 41 70 98S169 2 115 4C84 4 66-9 55-30l1 105H24l-1-265h31l2 30c10-21 28-34 59-34zm-8 174c40 0 45-34 45-75s-6-73-45-74c-42 0-51 32-51 76 0 43 10 73 51 73"
                  id="aW"/>
            <g id="u">
                <use transform="matrix(0.07335390946502056,0,0,0.07335390946502056,0,0)" xlink:href="#aV"/>
                <use transform="matrix(0.07335390946502056,0,0,0.07335390946502056,17.604938271604933,0)"
                     xlink:href="#aW"/>
                <use transform="matrix(0.07335390946502056,0,0,0.07335390946502056,32.27572016460904,0)"
                     xlink:href="#aJ"/>
                <use transform="matrix(0.07335390946502056,0,0,0.07335390946502056,41.00483539094649,0)"
                     xlink:href="#aN"/>
                <use transform="matrix(0.07335390946502056,0,0,0.07335390946502056,46.79979423868312,0)"
                     xlink:href="#aR"/>
            </g>
            <path fill="#a9afb8"
                  d="M54-142c48-35 137-8 131 61C196 18 31 33 14-55l32-4c7 23 22 37 52 37 35-1 51-22 54-58 4-55-73-65-99-34H22l8-134h141v27H59"
                  id="aX"/>
            <path fill="#a9afb8" d="M68-38c1 34 0 65-14 84H32c9-13 17-26 17-46H33v-38h35" id="aY"/>
            <g id="v">
                <use transform="matrix(0.07335390946502056,0,0,0.07335390946502056,0,0)" xlink:href="#aX"/>
                <use transform="matrix(0.07335390946502056,0,0,0.07335390946502056,14.670781893004111,0)"
                     xlink:href="#aY"/>
            </g>
            <path fill="#a9afb8"
                  d="M101-251c82-7 93 87 43 132L82-64C71-53 59-42 53-27h129V0H18c2-99 128-94 128-182 0-28-16-43-45-43s-46 15-49 41l-32-3c6-41 34-60 81-64"
                  id="aZ"/>
            <path fill="#a9afb8"
                  d="M101-251c68 0 85 55 85 127S166 4 100 4C33 4 14-52 14-124c0-73 17-127 87-127zm-1 229c47 0 54-49 54-102s-4-102-53-102c-51 0-55 48-55 102 0 53 5 102 54 102"
                  id="ba"/>
            <path fill="#a9afb8"
                  d="M126-127c33 6 58 20 58 59 0 88-139 92-164 29-3-8-5-16-6-25l32-3c6 27 21 44 54 44 32 0 52-15 52-46 0-38-36-46-79-43v-28c39 1 72-4 72-42 0-27-17-43-46-43-28 0-47 15-49 41l-32-3c6-42 35-63 81-64 48-1 79 21 79 65 0 36-21 52-52 59"
                  id="bb"/>
            <g id="w">
                <use transform="matrix(0.07335390946502056,0,0,0.07335390946502056,0,0)" xlink:href="#aZ"/>
                <use transform="matrix(0.07335390946502056,0,0,0.07335390946502056,14.670781893004111,0)"
                     xlink:href="#ba"/>
                <use transform="matrix(0.07335390946502056,0,0,0.07335390946502056,29.341563786008223,0)"
                     xlink:href="#aZ"/>
                <use transform="matrix(0.07335390946502056,0,0,0.07335390946502056,44.012345679012334,0)"
                     xlink:href="#bb"/>
            </g>
            <path fill="#333" d="M199 0l-22-63H83L61 0H9l90-248h61L250 0h-51zm-33-102l-36-108c-10 38-24 72-36 108h72"
                  id="bc"/>
            <path fill="#333"
                  d="M135-194c87-1 58 113 63 194h-50c-7-57 23-157-34-157-59 0-34 97-39 157H25l-1-190h47c2 12-1 28 3 38 12-26 28-41 61-42"
                  id="bd"/>
            <path fill="#333"
                  d="M133-34C117-15 103 5 69 4 32 3 11-16 11-54c-1-60 55-63 116-61 1-26-3-47-28-47-18 1-26 9-28 27l-52-2c7-38 36-58 82-57s74 22 75 68l1 82c-1 14 12 18 25 15v27c-30 8-71 5-69-32zm-48 3c29 0 43-24 42-57-32 0-66-3-65 30 0 17 8 27 23 27"
                  id="be"/>
            <g id="x">
                <use transform="matrix(0.0685185185185185,0,0,0.0685185185185185,0,0)" xlink:href="#bc"/>
                <use transform="matrix(0.0685185185185185,0,0,0.0685185185185185,17.746296296296293,0)"
                     xlink:href="#bd"/>
                <use transform="matrix(0.0685185185185185,0,0,0.0685185185185185,32.751851851851846,0)"
                     xlink:href="#U"/>
                <use transform="matrix(0.0685185185185185,0,0,0.0685185185185185,47.7574074074074,0)" xlink:href="#be"/>
                <use transform="matrix(0.0685185185185185,0,0,0.0685185185185185,61.4611111111111,0)" xlink:href="#S"/>
            </g>
            <path fill="#333"
                  d="M84 4C-5 8 30-112 23-190h32v120c0 31 7 50 39 49 72-2 45-101 50-169h31l1 190h-30c-1-10 1-25-2-33-11 22-28 36-60 37"
                  id="bf"/>
            <path fill="#333"
                  d="M210-169c-67 3-38 105-44 169h-31v-121c0-29-5-50-35-48C34-165 62-65 56 0H25l-1-190h30c1 10-1 24 2 32 10-44 99-50 107 0 11-21 27-35 58-36 85-2 47 119 55 194h-31v-121c0-29-5-49-35-48"
                  id="bg"/>
            <g id="y">
                <use transform="matrix(0.0685185185185185,0,0,0.0685185185185185,0,0)" xlink:href="#Z"/>
                <use transform="matrix(0.0685185185185185,0,0,0.0685185185185185,13.7037037037037,0)" xlink:href="#bf"/>
                <use transform="matrix(0.0685185185185185,0,0,0.0685185185185185,27.4074074074074,0)" xlink:href="#bg"/>
                <use transform="matrix(0.0685185185185185,0,0,0.0685185185185185,47.89444444444443,0)" xlink:href="#Y"/>
                <use transform="matrix(0.0685185185185185,0,0,0.0685185185185185,61.598148148148134,0)"
                     xlink:href="#ab"/>
                <use transform="matrix(0.0685185185185185,0,0,0.0685185185185185,69.75185185185184,0)"
                     xlink:href="#ad"/>
            </g>
            <g id="z">
                <use transform="matrix(0.0685185185185185,0,0,0.0685185185185185,0,0)" xlink:href="#ag"/>
                <use transform="matrix(0.0685185185185185,0,0,0.0685185185185185,5.412962962962962,0)" xlink:href="#Z"/>
                <use transform="matrix(0.0685185185185185,0,0,0.0685185185185185,19.116666666666664,0)"
                     xlink:href="#am"/>
            </g>
            <path fill="#333" d="M24 0v-248h195v40H76v63h132v40H76v65h150V0H24" id="bh"/>
            <path fill="#333" d="M25 0v-261h50V0H25" id="bi"/>
            <path fill="#333" d="M128 0H69L1-190h53L99-40l48-150h52" id="bj"/>
            <g id="A">
                <use transform="matrix(0.0685185185185185,0,0,0.0685185185185185,0,0)" xlink:href="#bh"/>
                <use transform="matrix(0.0685185185185185,0,0,0.0685185185185185,16.444444444444443,0)"
                     xlink:href="#bi"/>
                <use transform="matrix(0.0685185185185185,0,0,0.0685185185185185,23.29629629629629,0)" xlink:href="#T"/>
                <use transform="matrix(0.0685185185185185,0,0,0.0685185185185185,36.99999999999999,0)"
                     xlink:href="#bj"/>
                <use transform="matrix(0.0685185185185185,0,0,0.0685185185185185,50.703703703703695,0)"
                     xlink:href="#be"/>
                <use transform="matrix(0.0685185185185185,0,0,0.0685185185185185,64.40740740740739,0)" xlink:href="#U"/>
                <use transform="matrix(0.0685185185185185,0,0,0.0685185185185185,79.41296296296295,0)" xlink:href="#W"/>
                <use transform="matrix(0.0685185185185185,0,0,0.0685185185185185,94.41851851851851,0)" xlink:href="#S"/>
            </g>
            <g id="B">
                <use transform="matrix(0.0685185185185185,0,0,0.0685185185185185,0,0)" xlink:href="#ag"/>
                <use transform="matrix(0.0685185185185185,0,0,0.0685185185185185,5.412962962962962,0)"
                     xlink:href="#aa"/>
            </g>
            <use transform="matrix(0.0685185185185185,0,0,0.0685185185185185,0,0)" xlink:href="#ao" id="C"/>
            <path fill="#333"
                  d="M135-143c-3-34-86-38-87 0 15 53 115 12 119 90S17 21 10-45l28-5c4 36 97 45 98 0-10-56-113-15-118-90-4-57 82-63 122-42 12 7 21 19 24 35"
                  id="bk"/>
            <g id="D">
                <use transform="matrix(0.0685185185185185,0,0,0.0685185185185185,0,0)" xlink:href="#bg"/>
                <use transform="matrix(0.0685185185185185,0,0,0.0685185185185185,20.487037037037034,0)"
                     xlink:href="#ad"/>
                <use transform="matrix(0.0685185185185185,0,0,0.0685185185185185,34.190740740740736,0)"
                     xlink:href="#at"/>
                <use transform="matrix(0.0685185185185185,0,0,0.0685185185185185,46.524074074074065,0)"
                     xlink:href="#Y"/>
                <use transform="matrix(0.0685185185185185,0,0,0.0685185185185185,60.22777777777777,0)"
                     xlink:href="#ab"/>
                <use transform="matrix(0.0685185185185185,0,0,0.0685185185185185,68.38148148148147,0)"
                     xlink:href="#ar"/>
                <use transform="matrix(0.0685185185185185,0,0,0.0685185185185185,76.53518518518517,0)"
                     xlink:href="#aa"/>
                <use transform="matrix(0.0685185185185185,0,0,0.0685185185185185,90.23888888888887,0)" xlink:href="#Y"/>
                <use transform="matrix(0.0685185185185185,0,0,0.0685185185185185,103.94259259259256,0)"
                     xlink:href="#bk"/>
                <use transform="matrix(0.0685185185185185,0,0,0.0685185185185185,116.27592592592589,0)"
                     xlink:href="#am"/>
                <use transform="matrix(0.0685185185185185,0,0,0.0685185185185185,123.12777777777774,0)"
                     xlink:href="#ag"/>
                <use transform="matrix(0.0685185185185185,0,0,0.0685185185185185,128.5407407407407,0)" xlink:href="#Z"/>
                <use transform="matrix(0.0685185185185185,0,0,0.0685185185185185,142.24444444444438,0)"
                     xlink:href="#ad"/>
            </g>
            <use transform="matrix(0.0685185185185185,0,0,0.0685185185185185,0,0)" xlink:href="#ak" id="E"/>
            <g id="F">
                <use transform="matrix(0.0685185185185185,0,0,0.0685185185185185,0,0)" xlink:href="#ag"/>
                <use transform="matrix(0.0685185185185185,0,0,0.0685185185185185,5.412962962962962,0)" xlink:href="#Z"/>
                <use transform="matrix(0.0685185185185185,0,0,0.0685185185185185,19.116666666666664,0)"
                     xlink:href="#am"/>
                <use transform="matrix(0.0685185185185185,0,0,0.0685185185185185,25.968518518518515,0)"
                     xlink:href="#as"/>
            </g>
            <g id="G">
                <use transform="matrix(0.0685185185185185,0,0,0.0685185185185185,0,0)" xlink:href="#aq"/>
                <use transform="matrix(0.0685185185185185,0,0,0.0685185185185185,16.444444444444443,0)"
                     xlink:href="#Z"/>
                <use transform="matrix(0.0685185185185185,0,0,0.0685185185185185,30.148148148148145,0)"
                     xlink:href="#aa"/>
                <use transform="matrix(0.0685185185185185,0,0,0.0685185185185185,43.85185185185185,0)"
                     xlink:href="#ah"/>
                <use transform="matrix(0.0685185185185185,0,0,0.0685185185185185,57.55555555555555,0)"
                     xlink:href="#ab"/>
            </g>
            <path fill="#333"
                  d="M126-127c33 6 58 20 58 59 0 88-139 92-164 29-3-8-5-16-6-25l32-3c6 27 21 44 54 44 32 0 52-15 52-46 0-38-36-46-79-43v-28c39 1 72-4 72-42 0-27-17-43-46-43-28 0-47 15-49 41l-32-3c6-42 35-63 81-64 48-1 79 21 79 65 0 36-21 52-52 59"
                  id="bl"/>
            <g id="H">
                <use transform="matrix(0.06172839506172839,0,0,0.06172839506172839,0,0)" xlink:href="#az"/>
                <use transform="matrix(0.06172839506172839,0,0,0.06172839506172839,12.345679012345679,0)"
                     xlink:href="#aw"/>
                <use transform="matrix(0.06172839506172839,0,0,0.06172839506172839,18.51851851851852,0)"
                     xlink:href="#aw"/>
                <use transform="matrix(0.06172839506172839,0,0,0.06172839506172839,24.691358024691358,0)"
                     xlink:href="#bl"/>
            </g>
            <path fill="#333"
                  d="M137-138c1-29-70-34-71-4 15 46 118 7 119 86 1 83-164 76-172 9l43-7c4 19 20 25 44 25 33 8 57-30 24-41C81-84 22-81 20-136c-2-80 154-74 161-7"
                  id="bm"/>
            <g id="I">
                <use transform="matrix(0.0685185185185185,0,0,0.0685185185185185,0,0)" xlink:href="#R"/>
                <use transform="matrix(0.0685185185185185,0,0,0.0685185185185185,16.444444444444443,0)"
                     xlink:href="#T"/>
                <use transform="matrix(0.0685185185185185,0,0,0.0685185185185185,30.148148148148145,0)"
                     xlink:href="#bm"/>
                <use transform="matrix(0.0685185185185185,0,0,0.0685185185185185,43.85185185185185,0)"
                     xlink:href="#bm"/>
                <use transform="matrix(0.0685185185185185,0,0,0.0685185185185185,57.55555555555555,0)" xlink:href="#W"/>
                <use transform="matrix(0.0685185185185185,0,0,0.0685185185185185,72.5611111111111,0)" xlink:href="#be"/>
            </g>
            <use transform="matrix(0.0685185185185185,0,0,0.0685185185185185,0,0)" xlink:href="#X" id="J"/>
            <g id="K">
                <use transform="matrix(0.0685185185185185,0,0,0.0685185185185185,0,0)" xlink:href="#Z"/>
                <use transform="matrix(0.0685185185185185,0,0,0.0685185185185185,13.7037037037037,0)" xlink:href="#ad"/>
                <use transform="matrix(0.0685185185185185,0,0,0.0685185185185185,27.4074074074074,0)" xlink:href="#bg"/>
                <use transform="matrix(0.0685185185185185,0,0,0.0685185185185185,47.89444444444443,0)" xlink:href="#Y"/>
            </g>
            <g id="L">
                <use transform="matrix(0.0685185185185185,0,0,0.0685185185185185,0,0)" xlink:href="#al"/>
                <use transform="matrix(0.0685185185185185,0,0,0.0685185185185185,16.444444444444443,0)"
                     xlink:href="#am"/>
                <use transform="matrix(0.0685185185185185,0,0,0.0685185185185185,23.29629629629629,0)"
                     xlink:href="#ab"/>
                <use transform="matrix(0.0685185185185185,0,0,0.0685185185185185,31.449999999999996,0)"
                     xlink:href="#ag"/>
                <use transform="matrix(0.0685185185185185,0,0,0.0685185185185185,36.86296296296297,0)" xlink:href="#Z"/>
                <use transform="matrix(0.0685185185185185,0,0,0.0685185185185185,50.56666666666666,0)"
                     xlink:href="#an"/>
            </g>
            <g id="M">
                <use transform="matrix(0.0685185185185185,0,0,0.0685185185185185,0,0)" xlink:href="#ah"/>
                <use transform="matrix(0.0685185185185185,0,0,0.0685185185185185,13.7037037037037,0)" xlink:href="#Z"/>
                <use transform="matrix(0.0685185185185185,0,0,0.0685185185185185,27.4074074074074,0)" xlink:href="#aa"/>
                <use transform="matrix(0.0685185185185185,0,0,0.0685185185185185,41.11111111111111,0)"
                     xlink:href="#ah"/>
                <use transform="matrix(0.0685185185185185,0,0,0.0685185185185185,54.8148148148148,0)" xlink:href="#ab"/>
            </g>
            <g id="N">
                <use transform="matrix(0.0685185185185185,0,0,0.0685185185185185,0,0)" xlink:href="#aq"/>
                <use transform="matrix(0.0685185185185185,0,0,0.0685185185185185,16.444444444444443,0)"
                     xlink:href="#Z"/>
                <use transform="matrix(0.0685185185185185,0,0,0.0685185185185185,30.148148148148145,0)"
                     xlink:href="#aa"/>
                <use transform="matrix(0.0685185185185185,0,0,0.0685185185185185,43.85185185185185,0)"
                     xlink:href="#ah"/>
                <use transform="matrix(0.0685185185185185,0,0,0.0685185185185185,57.55555555555555,0)"
                     xlink:href="#ab"/>
            </g>
            <path fill="#333"
                  d="M115-194c55 1 70 41 70 98S169 2 115 4C84 4 66-9 55-30l1 105H24l-1-265h31l2 30c10-21 28-34 59-34zm-8 174c40 0 45-34 45-75s-6-73-45-74c-42 0-51 32-51 76 0 43 10 73 51 73"
                  id="bn"/>
            <g id="O">
                <use transform="matrix(0.0685185185185185,0,0,0.0685185185185185,0,0)" xlink:href="#bn"/>
                <use transform="matrix(0.0685185185185185,0,0,0.0685185185185185,13.7037037037037,0)" xlink:href="#ab"/>
                <use transform="matrix(0.0685185185185185,0,0,0.0685185185185185,21.8574074074074,0)" xlink:href="#Y"/>
                <use transform="matrix(0.0685185185185185,0,0,0.0685185185185185,35.5611111111111,0)" xlink:href="#aa"/>
                <use transform="matrix(0.0685185185185185,0,0,0.0685185185185185,49.264814814814805,0)"
                     xlink:href="#ag"/>
                <use transform="matrix(0.0685185185185185,0,0,0.0685185185185185,54.67777777777777,0)"
                     xlink:href="#ad"/>
            </g>
            <path fill="#333"
                  d="M30-248c87 1 191-15 191 75 0 78-77 80-158 76V0H30v-248zm33 125c57 0 124 11 124-50 0-59-68-47-124-48v98"
                  id="bo"/>
            <g id="P">
                <use transform="matrix(0.0685185185185185,0,0,0.0685185185185185,0,0)" xlink:href="#bo"/>
                <use transform="matrix(0.0685185185185185,0,0,0.0685185185185185,16.444444444444443,0)"
                     xlink:href="#ab"/>
                <use transform="matrix(0.0685185185185185,0,0,0.0685185185185185,24.598148148148145,0)"
                     xlink:href="#Y"/>
                <use transform="matrix(0.0685185185185185,0,0,0.0685185185185185,38.30185185185184,0)"
                     xlink:href="#aa"/>
                <use transform="matrix(0.0685185185185185,0,0,0.0685185185185185,52.005555555555546,0)"
                     xlink:href="#ag"/>
                <use transform="matrix(0.0685185185185185,0,0,0.0685185185185185,57.41851851851851,0)"
                     xlink:href="#ad"/>
            </g>
            <g id="Q">
                <use transform="matrix(0.0685185185185185,0,0,0.0685185185185185,0,0)" xlink:href="#bf"/>
                <use transform="matrix(0.0685185185185185,0,0,0.0685185185185185,13.7037037037037,0)" xlink:href="#bk"/>
                <use transform="matrix(0.0685185185185185,0,0,0.0685185185185185,26.03703703703703,0)"
                     xlink:href="#ah"/>
                <use transform="matrix(0.0685185185185185,0,0,0.0685185185185185,39.74074074074073,0)"
                     xlink:href="#ab"/>
                <use transform="matrix(0.0685185185185185,0,0,0.0685185185185185,47.89444444444443,0)"
                     xlink:href="#au"/>
                <use transform="matrix(0.0685185185185185,0,0,0.0685185185185185,64.33888888888887,0)"
                     xlink:href="#ai"/>
                <use transform="matrix(0.0685185185185185,0,0,0.0685185185185185,69.75185185185184,0)" xlink:href="#Y"/>
                <use transform="matrix(0.0685185185185185,0,0,0.0685185185185185,83.45555555555553,0)"
                     xlink:href="#at"/>
                <use transform="matrix(0.0685185185185185,0,0,0.0685185185185185,95.78888888888886,0)"
                     xlink:href="#ah"/>
                <use transform="matrix(0.0685185185185185,0,0,0.0685185185185185,109.49259259259256,0)"
                     xlink:href="#aa"/>
                <use transform="matrix(0.0685185185185185,0,0,0.0685185185185185,123.19629629629625,0)"
                     xlink:href="#ad"/>
                <use transform="matrix(0.0685185185185185,0,0,0.0685185185185185,136.89999999999995,0)"
                     xlink:href="#ab"/>
                <use transform="matrix(0.0685185185185185,0,0,0.0685185185185185,145.05370370370363,0)"
                     xlink:href="#ar"/>
                <use transform="matrix(0.0685185185185185,0,0,0.0685185185185185,153.20740740740737,0)"
                     xlink:href="#as"/>
            </g>
        </defs>
    </g>
</svg>